<?xml version="1.0" standalone="no"?>
<!DOCTYPE svg PUBLIC "-//W3C//DTD SVG 1.1//EN" "http://www.w3.org/Graphics/SVG/1.1/DTD/svg11.dtd" >
<svg xmlns="http://www.w3.org/2000/svg">
<metadata>
This is a custom SVG webfont generated by Font Squirrel.
Copyright   : Generated in 2010 by FontLab Studio Copyright info pending
Designer    : Campivisivi
Foundry     : Campivisivi
</metadata>
<defs>
<font id="webfontAZApVpSk" horiz-adv-x="1083" >
<font-face units-per-em="2048" ascent="1536" descent="-512" />
<missing-glyph horiz-adv-x="479" />
<glyph unicode=" "  horiz-adv-x="479" />
<glyph unicode="&#x09;" horiz-adv-x="479" />
<glyph unicode="&#xa0;" horiz-adv-x="479" />
<glyph unicode="!" d="M406 1434h303l-11 -902h-282zM410 0v340h295v-340h-295z" />
<glyph unicode="&#x22;" horiz-adv-x="724" d="M68 1413h264l-10 -512h-250zM412 1413h264l-10 -512h-250z" />
<glyph unicode="#" d="M2 338v229h197v217h-197v230h197v338h237v-338h213v338h238v-338h196v-230h-196v-217h196v-229h-196v-338h-238v338h-213v-338h-237v338h-197zM436 567h213v217h-213v-217z" />
<glyph unicode="$" d="M61 1022q0 203 133.5 309.5t370.5 106.5h10l27 200h154l-27 -213l266 -43l-22 -252q-14 2 -279 27l-43 -334q219 -72 295 -155q78 -88 78 -262q0 -205 -129 -316q-127 -109 -350 -115l-31 -241q-154 6 -154 14l31 238q-57 6 -135 18q-96 16 -117 21l-41 8l29 252 q190 -27 297 -33l43 338q-221 68 -315 164q-91 92 -91 268zM342 1026q0 -55 35 -86q37 -33 127 -66l37 289q-199 -8 -199 -137zM580 252q84 6 125 41q39 33 38 106q0 47 -28 80q-31 35 -99 64z" />
<glyph unicode="%" d="M2 1138.5q0 141.5 63.5 219.5t192.5 78t192.5 -78t63.5 -219.5t-63 -218.5q-66 -80 -193 -80t-192 80q-64 77 -64 218.5zM49 121l866 1302l134 -96l-867 -1302zM203 1139q0 -78 10 -105q12 -31 45 -30q31 0 43 30.5t12 104.5q0 77 -12 104q-12 29 -43 29q-33 0 -45 -29 q-10 -22 -10 -104zM571 303q0 139 64 217q66 80 192.5 80t192.5 -80q63 -78 63 -217q0 -141 -63 -219q-66 -80 -193 -80t-192 80q-64 78 -64 219zM772 303q0 -76 12 -106q12 -29 43 -29q33 0 45 29q10 25 10.5 106.5t-10.5 104.5q-12 29 -45 28q-31 0 -43 -28t-12 -105z" />
<glyph unicode="&#x26;" horiz-adv-x="1431" d="M66 406q0 258 284 419q-59 80 -81.5 141.5t-22.5 159.5q0 158 112 246q115 90 304 90q203 0 311 -92q106 -92 106 -266q0 -133 -61 -223q-66 -96 -209 -201l160 -164q41 178 49 238l266 -6q-31 -205 -102 -402l229 -213l-164 -184l-211 182q-133 -100 -225 -137 q-104 -41 -256 -41q-225 0 -356 119q-133 121 -133 334zM348 408q0 -86 61.5 -141.5t153.5 -55.5q72 0 137 20q61 18 129 70l-313 334q-72 -45 -121 -105q-47 -59 -47 -122zM522 1085q0 -106 90 -202l29 -31q86 63 125 111q35 43 35 110q0 131 -139.5 131t-139.5 -119z" />
<glyph unicode="'" horiz-adv-x="202" d="M-41 1413h264l-10 -512h-250z" />
<glyph unicode="(" horiz-adv-x="530" d="M10 616q0 172 51 412q47 223 99 369l49 139h299q-39 -109 -55 -158q-29 -92 -86 -346q-53 -238 -54 -416q0 -341 179 -829l16 -43h-299l-55 139q-31 82 -88 320q-56 231 -56 413z" />
<glyph unicode=")" horiz-adv-x="530" d="M10 -256q35 94 53 152q29 90 87 333q55 238 55 408t-49 395q-49 221 -99 365l-47 139h299l56 -147q31 -84 88 -332q55 -240 55 -420q0 -181 -49 -406q-51 -229 -101 -356l-49 -131h-299z" />
<glyph unicode="*" d="M215 938l215 160l-209 149l94 129l203 -141l84 240l154 -52l-78 -249h252v-152h-252l78 -246l-150 -45l-84 248l-211 -162z" />
<glyph unicode="+" d="M33 471v250h387v385h250v-385h391v-250h-391v-389h-250v389h-387z" />
<glyph unicode="," horiz-adv-x="346" d="M-12 -252l106 533h295l-125 -533h-276z" />
<glyph unicode="-" horiz-adv-x="899" d="M143 440v271h615v-271h-615z" />
<glyph unicode="." horiz-adv-x="505" d="M92 0v340h295v-340h-295z" />
<glyph unicode="/" d="M115 41l579 1434l262 -91l-579 -1433z" />
<glyph unicode="0" d="M14 667.5q0 370.5 133 540.5q131 168 393.5 168t393.5 -168q133 -170 133 -540q0 -375 -131 -533q-133 -160 -395 -160q-261 0 -394 160q-133 162 -133 532.5zM317 668q0 -243 50 -332q49 -90 176 -90q125 0 174 88q47 86 47 334q0 249 -49 344q-49 94 -172 94 q-127 0 -176.5 -96t-49.5 -342z" />
<glyph unicode="1" d="M57 1057l443 295h262v-1352h-283v1022l-291 -191z" />
<glyph unicode="2" d="M104 0v258l281 279l123 125q37 35 82 94q51 63 63 100q14 41 15 92q0 80 -52 113q-53 35 -170 35q-35 0 -141 -9q-90 -6 -129 -14l-47 -8l-16 258q219 53 405 53q229 0 334 -96q106 -98 106 -291q0 -152 -61 -262q-59 -109 -223 -268l-193 -189h500v-270h-877z" />
<glyph unicode="3" d="M94 25l27 254q240 -29 385 -29q211 0 211 151q0 143 -197 144h-272v256h272q66 0 119 53t53 104q0 143 -203 144q-74 0 -159 -6q-96 -6 -142 -15l-53 -6l-24 248q242 53 399 53q258 0 367 -90q106 -88 106 -282q0 -104 -39 -170q-41 -70 -119 -121q98 -55 140 -115 q43 -65 43 -190q0 -218 -111 -326q-109 -106 -350 -107q-89 0 -203 13q-111 12 -180 24z" />
<glyph unicode="4" d="M45 197v229l336 926h311l-327 -885h260v407h282v-407h125v-270h-125v-217h-282v217h-580z" />
<glyph unicode="5" d="M72 43l30 252q266 -49 439 -49q84 0 133 49t49 129q0 88 -49 131t-139 43q-121 0 -216 -31l-217 47l45 740h826v-271h-572l-32 -258q132 37 196 37q223 0 336 -102.5t113 -319.5q0 -219 -121 -344q-119 -121 -342 -121q-212 0 -479 68z" />
<glyph unicode="6" d="M45 670q0 383 143.5 544.5t419.5 161.5q178 0 406 -45l-25 -258q-209 31 -381 31q-272 0 -272 -289l43 12q41 12 108 25q76 14 107 14q233 0 348 -106q117 -108 117 -332q0 -225 -131 -338q-133 -115 -365 -115q-518 1 -518 695zM334 571q0 -150 53 -237q55 -92 176 -92 q205 0 205 186q0 180 -199 180q-72 -4 -108 -10q-58 -9 -92 -18z" />
<glyph unicode="7" d="M100 1081v273h865v-322l-488 -1069l-262 74l459 995v49h-574z" />
<glyph unicode="8" d="M37 344q0 129 41 205q40 74 129 147q-88 72 -117 135q-31 68 -31 177q0 174 134 272q129 96 356 96q221 0 360 -98q137 -98 138 -272q0 -117 -29 -179q-29 -59 -119 -131q90 -78 129 -143.5t39 -185.5q0 -203 -143.5 -297.5t-374.5 -94.5q-512 0 -512 369zM340 410 q0 -164 209 -164q104 0 159.5 43t55.5 121q0 102 -121 149h-180q-123 -47 -123 -149zM362 963q0 -86 101 -156h180q100 70 100 156q0 143 -190.5 143t-190.5 -143z" />
<glyph unicode="9" d="M31 924q0 219 135 335.5t360 116.5q264 0 392 -172q127 -174 126 -520q0 -385 -143 -547t-420 -162q-178 0 -405 45l24 254q209 -31 381 -30q137 0 203 78q70 82 70 210l-43 -12q-23 -6 -107 -22q-63 -12 -108 -13q-224 0 -344 111q-121 111 -121 328zM322 924 q0 -180 198 -181q106 0 236 41q0 147 -58 236q-59 90 -172 90q-92 0 -149 -47q-55 -47 -55 -139z" />
<glyph unicode=":" horiz-adv-x="468" d="M72 0v340h295v-340h-295zM72 592v340h295v-340h-295z" />
<glyph unicode=";" horiz-adv-x="491" d="M8 -231l127 553h295l-166 -553h-256zM115 592v340h295v-340h-295z" />
<glyph unicode="&#x3c;" d="M129 485v287l711 373v-287l-441 -225l441 -232v-286z" />
<glyph unicode="=" d="M43 238v249h973v-249h-973zM43 682v250h973v-250h-973z" />
<glyph unicode="&#x3e;" d="M129 115v286l440 232l-440 225v287l711 -373v-287z" />
<glyph unicode="?" horiz-adv-x="788" d="M10 1405q236 57 350 57q246 0 353 -92q109 -92 108 -313q0 -104 -37 -185q-39 -84 -90 -129t-108 -86q-55 -39 -90 -73q-37 -37 -37 -76v-78h-295v84q0 80 37 137q37 59 88 99l102 73q55 39 90 86q37 49 37 111q0 86 -29 117q-31 35 -141 34q-37 0 -123 -10 q-111 -12 -129 -16l-53 -10zM164 0v340h295v-340h-295z" />
<glyph unicode="@" horiz-adv-x="2015" d="M82 535q0 473 256 716q254 242 694 242q449 0 676 -221t227 -647v-35q0 -326 -98 -467q-100 -143 -297 -143q-178 0 -266 88q-176 -86 -309 -86q-190 0 -286.5 120.5t-96.5 393.5q0 143 16 227q20 102 59 170q43 76 121 111q84 39 195 38q61 0 190 -45v27h275v-410 q0 -156 10 -243q10 -82 31 -103q23 -23 61 -22q66 0 92 69q27 68 27 275v37q0 323 -148 460q-145 137 -479 138q-332 0 -504 -176q-170 -172 -170 -514q0 -375 154 -535t520 -160l293 19l10 -267q-197 -20 -303 -20q-233 0 -405 47q-170 47 -295 156q-127 111 -189 299 q-61 188 -61 461zM860 496q0 -137 29 -189q31 -55 98 -55q83 0 191 31q-14 80 -15 209v270q-84 20 -129 20q-106 0 -141 -57q-33 -53 -33 -229z" />
<glyph unicode="A" horiz-adv-x="1236" d="M41 0l313 1413h537l307 -1413h-283l-63 238h-475l-53 -238h-283zM436 510h363l-133 643h-93z" />
<glyph unicode="B" horiz-adv-x="1236" d="M143 0v1413h543q199 0 318 -88q117 -86 116 -270q0 -133 -35 -207q-35 -72 -118 -125q98 -45 139 -114.5t41 -209.5q0 -203 -119 -301t-334 -98h-551zM422 260h258q88 0 133 39q43 37 43 123q0 158 -176 158h-258v-320zM422 836h252q158 0 157 168q0 150 -159 149h-250 v-317z" />
<glyph unicode="C" horiz-adv-x="1091" d="M82 707q0 399 121 567q119 164 411 164q84 0 179 -15q125 -18 165 -28l64 -17l-8 -248q-258 29 -359 29q-114 0 -172 -37q-57 -35 -84 -133q-27 -94 -26 -282q0 -268 55 -360.5t236 -92.5q53 0 133 8q133 14 151 17l66 6l6 -254q-243 -55 -406 -56q-313 0 -421 170 q-111 173 -111 562z" />
<glyph unicode="D" horiz-adv-x="1280" d="M143 0v1413h465q182 0 297 -39q119 -41 182.5 -129t88.5 -207q25 -121 24 -305q0 -188 -22 -319q-20 -119 -86 -224q-63 -100 -180 -145t-304 -45h-465zM422 268h186q84 0 137.5 20.5t85.5 57.5q31 34 50 98q16 55 22 127q6 63 6 162q0 61 -4 131q-2 49 -12 103 q-8 47 -31 80q-20 29 -53 53q-35 27 -84 35q-55 10 -117 10h-186v-877z" />
<glyph unicode="E" horiz-adv-x="1130" d="M143 0v1413h897v-270h-618v-316h496v-264h-496v-293h618v-270h-897z" />
<glyph unicode="F" horiz-adv-x="1099" d="M143 0v1413h897v-270h-618v-408h496v-268h-496v-467h-279z" />
<glyph unicode="G" horiz-adv-x="1216" d="M82 711q0 387 127 557t432 170q104 0 217 -15q147 -18 195 -28l73 -17l-8 -243q-238 27 -432 26q-182 0 -247.5 -90t-65.5 -360.5t59 -366.5q57 -94 246 -94l170 8v240h-127v252h405v-727q-299 -47 -475 -48q-316 0 -442 179q-127 180 -127 557z" />
<glyph unicode="H" horiz-adv-x="1368" d="M143 0v1413h283v-557h518v557h283v-1413h-283v584h-518v-584h-283z" />
<glyph unicode="I" horiz-adv-x="567" d="M143 0v1413h283v-1413h-283z" />
<glyph unicode="J" horiz-adv-x="641" d="M61 119q156 0 156 131v1163h281q0 -59 1 -254.5t1 -333.5v-589q0 -219 -98.5 -299t-340.5 -80v262z" />
<glyph unicode="K" horiz-adv-x="1212" d="M143 0v1413h283v-606l184 20l230 586h325l-303 -702l312 -711h-326l-234 555l-188 -20v-535h-283z" />
<glyph unicode="L" horiz-adv-x="995" d="M143 0v1413h283v-1141h510v-272h-793z" />
<glyph unicode="M" horiz-adv-x="1734" d="M143 0v1413h451l276 -1016l277 1016h446v-1413h-282v1057h-31l-268 -996h-283l-272 996h-31v-1057h-283z" />
<glyph unicode="N" horiz-adv-x="1433" d="M143 0v1413h445l391 -1057h31v1057h282v-1413h-430l-405 1057h-31v-1057h-283z" />
<glyph unicode="O" horiz-adv-x="1316" d="M82 696q0 377 131 559.5t446.5 182.5t446.5 -182.5t131 -559.5q0 -372 -129 -546t-449 -175q-317 0 -446 175q-131 177 -131 546zM373 696q0 -240 61.5 -344t225 -104t225 104.5t61.5 343.5q0 243 -61 357q-61 113 -225 112.5t-226 -112.5q-61 -114 -61 -357z" />
<glyph unicode="P" horiz-adv-x="1210" d="M143 0v1413h512q496 0 496 -493q0 -246 -127 -383q-125 -133 -369 -134h-229v-403h-283zM426 676h227q211 0 211 244q0 221 -211 221h-227v-465z" />
<glyph unicode="Q" horiz-adv-x="1316" d="M82 696q0 377 131 559.5t446.5 182.5t446.5 -182.5t131 -559.5q0 -471 -211 -624l166 -271l-258 -120l-184 299q-78 -4 -91 -5q-317 0 -446 175q-131 177 -131 546zM373 696q0 -240 61.5 -344t225 -104t225 104.5t61.5 343.5q0 243 -61 357q-61 113 -225 112.5 t-226 -112.5q-61 -114 -61 -357z" />
<glyph unicode="R" horiz-adv-x="1255" d="M143 0v1413h541q254 0 373 -110.5t119 -358.5q0 -274 -205 -403l198 -541h-309l-164 457h-270v-457h-283zM426 725h262q199 0 199 215q0 205 -203 205h-258v-420z" />
<glyph unicode="S" d="M61 1022q0 203 133.5 309.5t370.5 106.5q78 0 178 -15q143 -20 181 -26l71 -15l-22 -252q-281 33 -408 33q-223 0 -223 -137q0 -66 55.5 -102.5t233.5 -92.5q227 -74 311 -159q82 -84 82 -266q0 -209 -135 -320t-361 -111q-158 0 -430 58l29 252q262 -35 399 -35 q113 0 166 35q51 33 51 114q0 68 -51 105q-53 37 -198 80q-242 72 -336 166q-97 96 -97 272z" />
<glyph unicode="T" horiz-adv-x="980" d="M-20 1141v272h1024v-272h-369v-1141h-283v1141h-372z" />
<glyph unicode="U" horiz-adv-x="1304" d="M123 471v942h283v-942q0 -117 65 -166q61 -47 182 -47q248 0 248 213v942h283v-942q0 -256 -131 -373q-132 -117 -400 -116q-264 0 -397 116.5t-133 372.5z" />
<glyph unicode="V" horiz-adv-x="1253" d="M41 1413h297l242 -1143h92l246 1143h296l-327 -1413h-522z" />
<glyph unicode="W" horiz-adv-x="1925" d="M49 1413h297l213 -1122h31l213 1122h321l213 -1122h31l213 1122h297l-315 -1413h-420l-180 997l-179 -997h-419z" />
<glyph unicode="X" horiz-adv-x="1187" d="M31 0l381 700l-381 713h313l252 -493l250 493h313l-375 -713l375 -700h-313l-250 485l-252 -485h-313z" />
<glyph unicode="Y" horiz-adv-x="1167" d="M20 1413h314l252 -493l250 493h313l-420 -811v-602h-283v604z" />
<glyph unicode="Z" horiz-adv-x="1165" d="M123 0v272l559 838v31h-559v272h921v-272l-559 -838v-31h559v-272h-921z" />
<glyph unicode="[" horiz-adv-x="612" d="M57 1534h518v-270h-235v-1246h235v-270h-516z" />
<glyph unicode="\" horiz-adv-x="1120" d="M70 1360l307 137l649 -1442l-305 -129z" />
<glyph unicode="]" horiz-adv-x="612" d="M57 18h236v1246h-236v270h518l-2 -1786h-516v270z" />
<glyph unicode="^" d="M29 641l370 711h287l371 -711h-287l-223 440l-232 -440h-286z" />
<glyph unicode="_" horiz-adv-x="1062" d="M55 31h877v-250h-877v250z" />
<glyph unicode="`" horiz-adv-x="546" d="M-37 1343l84 244l526 -188l-75 -215z" />
<glyph unicode="a" horiz-adv-x="1079" d="M82 311q0 162 88 234q84 70 268 82l221 14v51q0 41 -28 66q-31 27 -74 26l-397 -16l-8 233q268 45 421 46q182 0 271 -82q90 -84 90 -271v-379q0 -61 12 -79q12 -16 53 -27l-8 -234q-127 0 -178 15q-53 14 -113 55q-170 -70 -313 -70q-152 0 -227 88q-78 90 -78 248z M358 319q0 -109 84 -108q35 0 90 6q47 6 93 16l34 9v190l-186 -8q-115 -7 -115 -105z" />
<glyph unicode="b" horiz-adv-x="1116" d="M137 4v1430h275v-435q127 47 221 48q217 0 315 -119q98 -120 99 -406q0 -319 -115 -434q-113 -113 -395 -113q-41 0 -144 7q-39 2 -100.5 8t-77.5 8zM412 233q106 -10 125 -10q139 0 184 64q47 66 47 235q0 147 -43 209t-129 62l-184 -17v-543z" />
<glyph unicode="c" horiz-adv-x="890" d="M72 522q0 270 102 397.5t330 127.5q66 0 135 -11q18 -2 137 -22l55 -10l-8 -236q-174 16 -239 16q-141 0 -189 -55q-45 -53 -45 -207q0 -168 45 -225q47 -59 191 -59l237 16l8 -236q-217 -43 -333 -43q-229 0 -326 127q-100 131 -100 420z" />
<glyph unicode="d" horiz-adv-x="1126" d="M72 522q0 268 106 398q104 127 318 127q33 0 88 -7q4 0 94 -14l39 -6v414h274v-1434h-274v41q-139 -63 -246 -64q-223 0 -311 131t-88 414zM350 522q0 -162 35 -223q37 -63 133 -68q90 4 199 29v520q-115 18 -201 19q-166 -1 -166 -277z" />
<glyph unicode="e" horiz-adv-x="1036" d="M72 498q0 549 452 549q446 0 447 -461l-21 -193h-602q2 -86 49 -127q45 -39 158 -39q166 0 379 19l4 -213q-231 -57 -426 -58q-231 0 -335.5 123.5t-104.5 399.5zM346 604h354q0 109 -38.5 154t-137.5 45q-96 0 -137 -47q-37 -43 -41 -152z" />
<glyph unicode="f" horiz-adv-x="700" d="M35 774v248h110v47q0 217 65.5 301t233.5 84q31 0 88 -6q61 -6 103 -12l43 -9l-4 -223q-119 4 -156 4q-55 0 -78 -32q-20 -29 -20 -109v-45h248v-248h-248v-774h-275v774h-110z" />
<glyph unicode="g" horiz-adv-x="1099" d="M72 -186q0 135 145 245q-74 51 -74 154q0 25 21 63q27 49 41 70l18 31q-139 102 -139 305q0 186 117 274q115 88 313 88q40 0 92 -6q25 -2 82 -14l33 -6l315 6v-219h-129q35 -63 35 -123q0 -206 -104 -283q-106 -78 -328 -77q-51 0 -84 8q-20 -49 -20 -80 q0 -43 36.5 -55.5t161.5 -12.5q256 0 352 -67q94 -68 95 -242q0 -187 -136 -276q-133 -88 -350 -89q-246 0 -370 66q-123 65 -123 240zM342 -158q0 -88 225 -88q207 0 207 103q0 57 -37 71q-31 12 -155 17l-185 14q-55 -56 -55 -117zM358 682q0 -70 35 -100q34 -31 117 -31 q90 0 125 29q37 31 37 102q0 68 -37 98.5t-123 30.5q-82 0 -119 -31q-35 -28 -35 -98z" />
<glyph unicode="h" horiz-adv-x="1146" d="M137 0v1434h275v-441q160 53 254 54q206 0 282 -123q78 -125 78 -387v-537h-274v537q0 129 -29 192q-27 61 -115 62q-68 0 -196 -25v-766h-275z" />
<glyph unicode="i" horiz-adv-x="546" d="M137 0v1022h275v-1022h-275zM137 1155v281h275v-281h-275z" />
<glyph unicode="j" horiz-adv-x="552" d="M-70 -281q133 80 174 131q39 49 39 162v1010h275v-1012q0 -211 -74 -309t-291 -209zM143 1174v280h275v-280h-275z" />
<glyph unicode="k" horiz-adv-x="1058" d="M137 0v1434h275v-801l104 20l203 369h307l-264 -483l278 -539h-309l-209 385l-110 -20v-365h-275z" />
<glyph unicode="l" horiz-adv-x="546" d="M137 0v1434h275v-1434h-275z" />
<glyph unicode="m" horiz-adv-x="1732" d="M137 0v1022h273v-49q66 33 139 55q66 18 102 19q166 0 250 -84q227 84 350 84q203 0 283 -119q78 -117 78 -393v-535h-275v422q0 236 -18 291q-29 78 -125 78q-86 0 -190 -39q8 -125 8 -222v-530h-275v526q0 152 -26 207q-27 57 -117 58q-35 0 -76 -9q-63 -12 -76 -16 l-30 -10v-756h-275z" />
<glyph unicode="n" horiz-adv-x="1146" d="M137 0v1022h275v-45q154 70 254 70q206 0 282 -123q78 -125 78 -389v-535h-274v535q0 131 -29 194q-27 61 -115 62q-37 0 -80 -9q-76 -14 -84 -16l-32 -10v-756h-275z" />
<glyph unicode="o" d="M72 512q0 252 108 395q106 139 362.5 139.5t362.5 -139.5q109 -143 109 -395t-109 -395q-108 -141 -362.5 -141.5t-362.5 141.5q-108 143 -108 395zM350 512q0 -152 41 -219q43 -70 152 -70q106 0 149 70q43 72 43 219q0 152 -43 219.5t-149 67.5q-109 0 -152 -68 q-41 -63 -41 -219z" />
<glyph unicode="p" horiz-adv-x="1116" d="M137 -430v1452h275v-47q133 72 231 72q209 0 307 -119q96 -117 97 -408q0 -311 -109 -430q-106 -115 -356 -115q-86 0 -170 17v-422h-275zM412 233q102 -10 149 -10q121 0 164 66q43 63 43 231q0 274 -178 275q-74 0 -178 -39v-523z" />
<glyph unicode="q" horiz-adv-x="1095" d="M72 500q0 547 467 547q55 0 159.5 -6.5t184.5 -12.5l78 -6v-1454h-275v432q-52 -25 -147 -25q-467 1 -467 525zM346 500q0 -276 193 -277q27 0 67 10q51 12 60 17l20 8v537q-127 4 -147 4q-193 0 -193 -299z" />
<glyph unicode="r" horiz-adv-x="735" d="M137 0v1022h275v-96q125 90 284 121v-295q-82 -16 -151 -37q-74 -23 -103 -37l-30 -14v-664h-275z" />
<glyph unicode="s" horiz-adv-x="1015" d="M96 713q0 169 111 252q109 82 287 82q68 0 165 -13q70 -8 164 -26l68 -13l-4 -229q-248 33 -373 33q-88 0 -115 -19q-29 -18 -28 -61q0 -35 37 -51q33 -14 155 -33q209 -35 283 -103q76 -70 76 -225q0 -332 -414 -332q-151 0 -393 50l8 231q248 -33 358 -33 q92 0 129 18.5t37 59.5q0 35 -31 51q-35 16 -135 35q-211 37 -299 102q-86 64 -86 224z" />
<glyph unicode="t" horiz-adv-x="714" d="M31 774v248h121v287h274v-287h252v-248h-252v-387q0 -72 2 -88q2 -23 23 -43q18 -18 61 -18l156 4l12 -236q-138 -31 -209 -31q-184 0 -252 82q-68 83 -67 308v409h-121z" />
<glyph unicode="u" horiz-adv-x="1146" d="M123 487v535h274v-535q0 -160 23 -211q25 -53 121 -53q25 0 80 10q70 12 81 17l35 8v764h275v-1022h-275v43q-160 -68 -254 -68q-215 0 -288 117q-72 112 -72 395z" />
<glyph unicode="v" horiz-adv-x="989" d="M16 1022h285l168 -795h55l172 795h279l-246 -1022h-467z" />
<glyph unicode="w" horiz-adv-x="1536" d="M25 1022h270l125 -774h49l156 756h286l156 -756h49l125 774h270l-190 -1022h-440l-115 627l-117 -627h-434z" />
<glyph unicode="x" horiz-adv-x="954" d="M20 0l279 510l-279 512h293l164 -315l166 315h293l-281 -512l281 -510h-293l-166 313l-164 -313h-293z" />
<glyph unicode="y" horiz-adv-x="991" d="M16 1022h271l186 -754h47l187 754h270l-359 -1450h-270l105 428h-185z" />
<glyph unicode="z" horiz-adv-x="974" d="M109 0v248l430 528h-430v248h759v-248l-430 -528h430v-248h-759z" />
<glyph unicode="{" horiz-adv-x="692" d="M49 526v230q111 27 154 69q39 39 39 115q0 28 -6 123q-8 127 -9 137q0 195 103 273q100 76 340 86v-271q-92 -8 -119 -28.5t-27 -79.5q0 -4 8 -136q6 -98 7 -126q0 -121 -45 -179q-47 -59 -160 -96q113 -37 160 -102q45 -63 45 -189q0 -28 -7 -116q-8 -119 -8 -123 q0 -66 27 -86q29 -23 119 -31v-270q-231 10 -336 90q-106 82 -107 262q0 12 9 135q6 92 6 113q0 76 -41 122.5t-152 77.5z" />
<glyph unicode="|" d="M391 -471v2007h283v-2007h-283z" />
<glyph unicode="}" horiz-adv-x="692" d="M49 -4q90 8 119 31q27 20 27 86q0 37 -7 123q-8 115 -8 116q0 125 45 189q47 66 160 102q-113 37 -160 96q-45 57 -45 179q0 8 1 24l3 48t4 57q6 98 7 133q0 61 -25 80q-27 20 -121 28v271q240 -10 340 -86q102 -78 103 -273q0 -41 -7 -137q-2 -25 -4 -54.5l-3 -45 t-1 -23.5q0 -76 39 -115q43 -43 154 -69v-230q-111 -31 -152 -78t-41 -122q0 -6 1 -20.5t3 -41l4 -51.5q6 -92 7 -135q0 -180 -105 -262q-102 -80 -338 -90v270z" />
<glyph unicode="~" d="M119 696q6 6 35 31q14 12 90 47q68 31 135 31q55 0 182 -45t180 -45q31 0 88 20q55 20 86 39l35 21l17 -256q-9 -12 -31 -31q-23 -20 -82 -49q-57 -29 -125 -29q-59 0 -194.5 45t-172.5 45q-98 0 -223 -82z" />
<glyph unicode="&#xa1;" d="M406 -412l10 901h282l11 -901h-303zM410 682v340h295v-340h-295z" />
<glyph unicode="&#xa2;" horiz-adv-x="892" d="M25 512q0 420 372 451v206h230v-217l157 -20l-8 -236q-163 6 -239 6q-135 0 -183 -38q-51 -41 -51 -152q0 -114 49 -154q47 -39 187 -39l237 9l8 -236q-96 -16 -157 -22v-224h-230v213q-372 29 -372 453z" />
<glyph unicode="&#xa3;" d="M131 0v236h152v417h-131v240h131v133q0 367 368 367q120 0 277 -31v-234q-160 18 -269 19q-106 0 -106 -133v-121h313v-240h-313v-417h254l141 32l43 -231l-166 -35z" />
<glyph unicode="&#xa4;" d="M31 193l149 149q-84 172 0 348l-149 150l188 188l150 -149q172 84 348 0l149 149l189 -188l-150 -150q84 -176 0 -348l150 -149l-189 -189l-149 150q-176 -84 -348 0l-150 -150zM389 516.5q0 -63.5 45 -109t108.5 -45.5t108.5 45.5t45 109t-45 108.5t-108.5 45 t-108.5 -45t-45 -108.5z" />
<glyph unicode="&#xa5;" horiz-adv-x="1103" d="M-10 1352h313l252 -432l250 432h313l-293 -527h183v-229h-310v-72h310v-229h-310v-295h-282v295h-318v229h318v72h-318v229h189z" />
<glyph unicode="&#xa6;" d="M391 389h283v-860h-283v860zM391 672v864h283v-864h-283z" />
<glyph unicode="&#xa7;" d="M102 436q0 72 41 154q41 80 90 121q-90 66 -90 221q0 375 445 375q68 0 155 -13q89 -12 148 -24l57 -13l-12 -221q-223 33 -330 33q-117 0 -157 -29q-39 -27 -39 -104q0 -43 55 -68q61 -27 223 -65q182 -45 248 -105q63 -57 63 -204q0 -135 -102 -285q43 -43 59 -84 q18 -47 19 -139q0 -199 -105 -287q-102 -88 -340 -88q-65 0 -159 12q-88 12 -158 25l-63 10l26 221q221 -31 334 -31q106 0 154 27q49 27 49 90q0 55 -51 80q-57 27 -240 72q-178 45 -250 110q-70 64 -70 209zM379 487q0 -61 24 -81q27 -23 99 -44q39 -10 182 -57 q37 47 37 150q0 53 -33 77.5t-133 51.5q-4 0 -13.5 3t-24.5 6t-30 7q-52 12 -73 18q-35 -53 -35 -131z" />
<glyph unicode="&#xa8;" horiz-adv-x="546" d="M-61 1241v270h262v-270h-262zM381 1241v270h262v-270h-262z" />
<glyph unicode="&#xa9;" d="M18 887q0 236 150 391q152 158 375 158q229 0 376.5 -160t147.5 -387q0 -230 -147 -387q-147 -158 -381 -158q-217 0 -369 158t-152 385zM147 889q0 -174 113 -293q115 -121 281 -121q172 0 286 121q113 119 113 293q0 170 -115 295q-114 123 -282.5 123t-282.5 -123 q-113 -121 -113 -295zM279 899q0 156 65 231q66 74 205 74l156 -10l-3 -217q-55 12 -153 12q-29 0 -45 -28q-14 -27 -15 -62q0 -39 17 -76q16 -35 43 -35l153 11v-211q-55 -16 -153 -17q-143 0 -206.5 76t-63.5 252z" />
<glyph unicode="&#xaa;" horiz-adv-x="1058" d="M283 954q0 143 153 156l209 14v47q0 63 -24.5 88t-81.5 25l-213 -14l-4 63q152 16 217 17q89 0 129 -43q41 -45 41 -138v-274q12 -41 75 -47l-4 -57q-70 4 -110 45q-127 -45 -244 -45q-63 0 -102 45q-41 46 -41 118zM350 950q0 -94 82 -94q47 0 94 8q59 10 86 19l33 8 v174l-199 -12q-51 -2 -73.5 -29t-22.5 -74z" />
<glyph unicode="&#xab;" horiz-adv-x="1370" d="M184 397v197l457 336v-277l-223 -153l223 -176v-277zM764 397v197l457 336v-277l-224 -153l224 -176v-277z" />
<glyph unicode="&#xac;" d="M98 487v267h883v-561h-266v294h-617z" />
<glyph unicode="&#xad;" horiz-adv-x="899" d="M143 440v271h615v-271h-615z" />
<glyph unicode="&#xae;" d="M-20 889q0 244 151 414q150 168 412 167q260 0 417.5 -167.5t157.5 -413.5q0 -244 -157.5 -414t-417.5 -170q-262 0 -412 168q-151 170 -151 416zM106 889q0 -188 127 -322q131 -137 310 -137q180 0 309 135t129 324q0 194 -129 325q-129 133 -309 134 q-186 0 -311.5 -131t-125.5 -328zM287 565v645h258q254 0 254 -209q0 -78 -17 -122q-15 -43 -61 -80l92 -234h-211l-65 207h-54v-207h-196zM481 918h58q70 0 69 69q0 76 -71 76h-56v-145z" />
<glyph unicode="&#xaf;" horiz-adv-x="546" d="M-51 1274v237h669v-237h-669z" />
<glyph unicode="&#xb0;" d="M193 1155q0 137 83 221q86 86 223.5 86t223.5 -86q84 -84 84 -221q0 -139 -84 -221q-88 -84 -223 -84t-224 84q-83 82 -83 221zM346 1155q0 -72 41 -113q43 -43 112.5 -43t112.5 43q45 45 45 113q0 70 -45 115q-43 43 -112.5 43t-112.5 -43q-41 -41 -41 -115z" />
<glyph unicode="&#xb1;" d="M33 61v250h1028v-250h-1028zM33 614v250h387v242h250v-242h391v-250h-391v-225h-250v225h-387z" />
<glyph unicode="&#xb2;" horiz-adv-x="540" d="M29 979v184l149 121q94 76 94 117q0 31 -75 31l-156 -13l-8 203q152 18 241 18q123 0 177 -47q51 -45 51 -157q0 -68 -27 -113q-29 -47 -88 -92l-78 -57h193v-195h-473z" />
<glyph unicode="&#xb3;" horiz-adv-x="540" d="M41 973l12 190q127 -12 193 -12q59 0 59 33q0 29 -53 28h-135v174h131q41 0 41 29q0 31 -56 31l-172 -10l-12 186q138 18 221 18q248 0 248 -182q0 -109 -59 -143q72 -31 71 -150q0 -106 -63.5 -157.5t-177.5 -51.5z" />
<glyph unicode="&#xb4;" horiz-adv-x="546" d="M-2 1401l526 188l90 -260l-534 -160z" />
<glyph unicode="&#xb5;" d="M113 -451v1475h274v-590q4 -123 29 -166q27 -45 114 -45q25 0 80 10q70 12 82 17l35 8v764h274v-1022h-274v43q-160 -68 -254 -68q-46 0 -86 7v-433h-274z" />
<glyph unicode="&#x3bc;" d="M113 -451v1475h274v-590q4 -123 29 -166q27 -45 114 -45q25 0 80 10q70 12 82 17l35 8v764h274v-1022h-274v43q-160 -68 -254 -68q-46 0 -86 7v-433h-274z" />
<glyph unicode="&#xb6;" d="M16 1028q0 180 106.5 293t278.5 113h678v-211h-73v-1223h-234v1223h-127v-1223h-233v627h-15q-170 0 -276 112q-105 111 -105 289z" />
<glyph unicode="&#xb7;" horiz-adv-x="505" d="M92 424v340h295v-340h-295z" />
<glyph unicode="&#xb8;" horiz-adv-x="1703" d="M745 -471l9 160q43 -2 98 -2q78 0 78 53q0 45 -78 45h-49v217h108v-78q131 -2 191 -39q61 -37 61 -145q0 -117 -59 -176q-57 -57 -168 -58q-53 0 -86 5q-51 6 -78 12z" />
<glyph unicode="&#xb9;" horiz-adv-x="540" d="M33 1464l217 154h196v-639h-217v399l-96 -65z" />
<glyph unicode="&#xba;" horiz-adv-x="1075" d="M295 1073q0 276 235 277q121 0 175 -66q57 -70 57 -211q0 -283 -232 -282q-235 -1 -235 282zM365 1073q0 -121 38 -168q39 -49 127 -49t125 49t37 168t-37 164q-37 47 -125 47t-126.5 -47t-38.5 -164z" />
<glyph unicode="&#xbb;" horiz-adv-x="1370" d="M152 47v277l223 176l-223 153v277l456 -336v-197zM731 47v277l223 176l-223 153v277l457 -336v-197z" />
<glyph unicode="&#xbf;" horiz-adv-x="788" d="M10 -35q0 104 37 185q37 78 90 129q55 51 107 86q55 37 92 73.5t37 75.5v78h295v-84q0 -78 -37 -137.5t-88 -98.5l-103 -75q-57 -41 -90 -84q-37 -49 -37 -111q0 -88 29 -119q31 -33 141 -33q55 0 123 9q77 9 129 18l53 10l33 -270q-236 -57 -350 -57q-246 0 -354 92 q-107 92 -107 313zM373 682v340h295v-340h-295z" />
<glyph unicode="&#xc0;" horiz-adv-x="1234" d="M49 0l313 1413h537l307 -1413h-282l-64 238h-475l-53 -238h-283zM279 1696l90 260l526 -189l-82 -231zM444 510h363l-133 643h-92z" />
<glyph unicode="&#xc1;" horiz-adv-x="1234" d="M49 0l313 1413h537l307 -1413h-282l-64 238h-475l-53 -238h-283zM309 1810l527 189l90 -260l-535 -160zM444 510h363l-133 643h-92z" />
<glyph unicode="&#xc2;" horiz-adv-x="1234" d="M49 0l313 1413h537l307 -1413h-282l-64 238h-475l-53 -238h-283zM242 1597l268 353h221l270 -353h-292l-86 125l-88 -125h-293zM444 510h363l-133 643h-92z" />
<glyph unicode="&#xc3;" horiz-adv-x="1234" d="M49 0l313 1413h537l307 -1413h-282l-64 238h-475l-53 -238h-283zM229 1821q8 10 33 34.5t80 59.5q59 37 107 37q72 0 176 -43q109 -45 125 -45q53 0 168 80l59 -207q-8 -10 -32.5 -35t-80 -59.5t-106.5 -34.5q-57 0 -166 45t-139 45q-27 0 -66 -21q-55 -31 -70 -41 l-28 -20zM444 510h363l-133 643h-92z" />
<glyph unicode="&#xc4;" horiz-adv-x="1234" d="M49 0l313 1413h537l307 -1413h-282l-64 238h-475l-53 -238h-283zM324 1651v270h262v-270h-262zM444 510h363l-133 643h-92zM766 1651v270h262v-270h-262z" />
<glyph unicode="&#xc5;" horiz-adv-x="1234" d="M49 0l301 1360q-27 51 -26 117q0 123 88 190.5t219 67.5t219 -68t88 -190q0 -63 -29 -117l297 -1360h-282l-64 238h-475l-53 -238h-283zM444 510h363l-133 643h-92zM535 1477q0 -51 59 -64h74q59 12 59 64q0 31 -24.5 49t-71.5 18q-45 0 -70 -18q-26 -20 -26 -49z" />
<glyph unicode="&#xc6;" horiz-adv-x="1837" d="M98 0l377 1413h1299v-270h-619v-293h496v-268h-496v-312h619v-270h-897v238h-437l-59 -238h-283zM510 510h367l2 633h-205z" />
<glyph unicode="&#xc7;" horiz-adv-x="1097" d="M82 707q0 399 121 567q119 164 411 164q84 0 179 -15q125 -18 165 -28l64 -17l-8 -248q-258 29 -359 29q-114 0 -172 -37q-57 -35 -84 -133q-27 -94 -26 -282q0 -268 55 -360.5t236 -92.5q53 0 133 8q133 14 151 17l66 6l6 -254q-211 -49 -389 -56v-51q133 -4 192.5 -39 t59.5 -145q0 -117 -60 -176q-57 -57 -168 -58q-55 0 -88 5q-43 6 -73 12l-29 6l8 160q43 -2 98 -2q78 0 78 53q0 45 -78 45h-49v195q-250 20 -346 194q-94 171 -94 533z" />
<glyph unicode="&#xc8;" horiz-adv-x="1130" d="M143 0v1413h897v-270h-618v-316h496v-264h-496v-293h618v-270h-897zM279 1696l90 260l526 -189l-82 -231z" />
<glyph unicode="&#xc9;" horiz-adv-x="1169" d="M154 0v1413h897v-270h-619v-316h496v-264h-496v-293h619v-270h-897zM301 1810l526 189l91 -260l-535 -160z" />
<glyph unicode="&#xca;" horiz-adv-x="1169" d="M154 0v1413h897v-270h-619v-316h496v-264h-496v-293h619v-270h-897zM256 1597l268 353h221l271 -353h-293l-86 125l-88 -125h-293z" />
<glyph unicode="&#xcb;" horiz-adv-x="1169" d="M154 0v1413h897v-270h-619v-316h496v-264h-496v-293h619v-270h-897zM276 1651v270h263v-270h-263zM719 1651v270h262v-270h-262z" />
<glyph unicode="&#xcc;" horiz-adv-x="567" d="M-70 1696l90 260l527 -189l-82 -231zM143 0v1413h283v-1413h-283z" />
<glyph unicode="&#xcd;" horiz-adv-x="567" d="M-10 1790l526 188l90 -260l-534 -159zM143 0v1413h283v-1413h-283z" />
<glyph unicode="&#xce;" horiz-adv-x="567" d="M-111 1608l269 305h252l268 -305h-307l-84 88l-84 -88h-314zM143 0v1413h283v-1413h-283z" />
<glyph unicode="&#xcf;" horiz-adv-x="567" d="M-72 1626v270h262v-270h-262zM143 0v1413h283v-1413h-283zM383 1626v270h262v-270h-262z" />
<glyph unicode="&#xd0;" horiz-adv-x="1280" d="M33 571v271h110v571h465q182 0 297 -39q119 -41 182.5 -129t88.5 -207q25 -121 24 -305q0 -188 -22 -319q-20 -119 -86 -224q-63 -100 -180 -145t-304 -45h-465v571h-110zM422 268h186q84 0 137.5 20.5t85.5 57.5q31 34 50 98q16 55 22 127q6 63 6 162q0 61 -4 131 q-2 49 -12 103q-8 47 -31 80q-20 29 -53 53q-35 27 -84 35q-55 10 -117 10h-186v-303h266v-271h-266v-303z" />
<glyph unicode="&#xd1;" horiz-adv-x="1404" d="M121 0v1413h444l391 -1057h31v1057h283v-1413h-430l-406 1057h-31v-1057h-282zM305 1821q8 10 32.5 34.5t80.5 59.5q57 37 106 37q72 0 176 -43q109 -45 125 -45q55 0 168 80l60 -207q-8 -10 -33 -35t-80 -59.5t-106 -34.5q-57 0 -166 45t-140 45q-27 0 -65 -21 q-55 -31 -70 -41l-28 -20z" />
<glyph unicode="&#xd2;" horiz-adv-x="1341" d="M94 696q0 377 131 559.5t446.5 182.5t446.5 -182.5t131 -559.5q0 -369 -131 -546q-129 -174 -446 -175q-319 0 -448.5 174t-129.5 547zM332 1696l90 260l526 -189l-82 -231zM385 696q0 -240 61.5 -344t225.5 -104t225 104.5t61 343.5q0 243 -61 357q-61 113 -225 112.5 t-226 -112.5q-61 -114 -61 -357z" />
<glyph unicode="&#xd3;" horiz-adv-x="1341" d="M94 696q0 377 131 559.5t446.5 182.5t446.5 -182.5t131 -559.5q0 -369 -131 -546q-129 -174 -446 -175q-319 0 -448.5 174t-129.5 547zM334 1810l526 189l90 -260l-534 -160zM385 696q0 -240 61.5 -344t225.5 -104t225 104.5t61 343.5q0 243 -61 357q-61 113 -225 112.5 t-226 -112.5q-61 -114 -61 -357z" />
<glyph unicode="&#xd4;" horiz-adv-x="1341" d="M94 696q0 377 131 559.5t446.5 182.5t446.5 -182.5t131 -559.5q0 -369 -131 -546q-129 -174 -446 -175q-319 0 -448.5 174t-129.5 547zM289 1597l268 353h221l271 -353h-293l-86 125l-88 -125h-293zM385 696q0 -240 61.5 -344t225.5 -104t225 104.5t61 343.5 q0 243 -61 357q-61 113 -225 112.5t-226 -112.5q-61 -114 -61 -357z" />
<glyph unicode="&#xd5;" horiz-adv-x="1341" d="M94 696q0 377 131 559.5t446.5 182.5t446.5 -182.5t131 -559.5q0 -369 -131 -546q-129 -174 -446 -175q-319 0 -448.5 174t-129.5 547zM276 1821q8 10 33 34.5t80 59.5q57 37 107 37q72 0 176 -43q109 -45 125 -45q55 0 168 80l59 -207q-8 -10 -32.5 -35t-80 -59.5 t-106.5 -34.5q-57 0 -166 45t-139 45q-27 0 -66 -21q-55 -31 -69 -41l-29 -20zM385 696q0 -240 61.5 -344t225.5 -104t225 104.5t61 343.5q0 243 -61 357q-61 113 -225 112.5t-226 -112.5q-61 -114 -61 -357z" />
<glyph unicode="&#xd6;" horiz-adv-x="1341" d="M94 696q0 377 131 559.5t446.5 182.5t446.5 -182.5t131 -559.5q0 -369 -131 -546q-129 -174 -446 -175q-319 0 -448.5 174t-129.5 547zM309 1651v270h262v-270h-262zM385 696q0 -240 61.5 -344t225.5 -104t225 104.5t61 343.5q0 243 -61 357q-61 113 -225 112.5 t-226 -112.5q-61 -114 -61 -357zM752 1651v270h262v-270h-262z" />
<glyph unicode="&#xd7;" d="M332 254l354 356l-354 357l176 176l354 -357l357 357l178 -176l-357 -357l357 -356l-178 -176l-357 354l-354 -354z" />
<glyph unicode="&#xd8;" horiz-adv-x="1316" d="M82 696q0 377 131 559.5t446 182.5q100 0 189 -21l117 250l256 -94l-138 -293q154 -175 154 -584q0 -369 -131 -546q-129 -174 -447 -175q-102 0 -176 17l-118 -256l-248 112l125 269q-160 161 -160 579zM373 696q0 -156 22 -250l332 713q-31 6 -68 6q-164 0 -225 -112 q-61 -114 -61 -357zM604 250q10 -2 55 -2q164 0 225.5 104.5t61.5 343.5q0 150 -20 244z" />
<glyph unicode="&#xd9;" horiz-adv-x="1304" d="M12 1696l90 260l527 -189l-82 -231zM123 471v942h283v-942q0 -117 65 -166q61 -47 182 -47q248 0 248 213v942h283v-942q0 -256 -131 -373q-132 -117 -400 -116q-264 0 -397 116.5t-133 372.5z" />
<glyph unicode="&#xda;" horiz-adv-x="1312" d="M133 471v942h283v-942q0 -117 65 -166q61 -47 183 -47q248 0 247 213v942h283v-942q0 -256 -131 -373q-132 -117 -399.5 -116.5t-399.5 116.5q-131 117 -131 373zM330 1810l526 189l90 -260l-534 -160z" />
<glyph unicode="&#xdb;" horiz-adv-x="1312" d="M133 471v942h283v-942q0 -117 65 -166q61 -47 183 -47q248 0 247 213v942h283v-942q0 -256 -131 -373q-132 -117 -399.5 -116.5t-399.5 116.5q-131 117 -131 373zM285 1597l268 353h221l270 -353h-292l-86 125l-88 -125h-293z" />
<glyph unicode="&#xdc;" horiz-adv-x="1312" d="M133 471v942h283v-942q0 -117 65 -166q61 -47 183 -47q248 0 247 213v942h283v-942q0 -256 -131 -373q-132 -117 -399.5 -116.5t-399.5 116.5q-131 117 -131 373zM369 1651v270h262v-270h-262zM811 1651v270h262v-270h-262z" />
<glyph unicode="&#xdd;" horiz-adv-x="1103" d="M-10 1413h313l252 -493l250 493h313l-420 -811v-602h-282v604zM184 1810l527 189l90 -260l-535 -160z" />
<glyph unicode="&#xde;" d="M45 0v1413h283v-201h229q500 0 500 -489q0 -250 -127 -383q-131 -137 -373 -137h-229v-203h-283zM328 477h227q104 0 160 64q55 66 55 182q0 219 -215 219h-227v-465z" />
<glyph unicode="&#xdf;" horiz-adv-x="1284" d="M137 0v1069q0 209 117 297q115 88 356 88q250 0 359 -72q113 -76 112 -245q0 -106 -45 -162q-43 -52 -147 -98q-78 -35 -98 -52q-23 -16 -23 -41q0 -35 33 -59q31 -23 160 -82q143 -68 198 -129t55 -178q0 -205 -108 -279q-111 -76 -379 -75q-37 0 -98 12q-55 10 -103 24 l-41 13l9 213q178 -8 233 -8q205 0 205 59q0 41 -35 70q-37 29 -152 79q-144 61 -202 129q-57 66 -58 181q0 98 37 155.5t121 91.5q100 41 127 62q29 23 29 53q0 51 -45 70q-51 20 -144 20q-199 0 -198 -143v-1063h-275z" />
<glyph unicode="&#xe0;" horiz-adv-x="1095" d="M43 311q0 163 86 234q84 70 270 82l222 14v51q0 41 -29 66q-31 27 -74 26l-397 -16l-8 233q268 45 422 46q182 0 270 -82q90 -84 90 -271v-379q0 -61 12 -79q12 -16 54 -27l-9 -234q-127 0 -178 15q-53 14 -112 55q-170 -70 -314 -70q-152 0 -227 88q-78 90 -78 248z M168 1343l84 244l526 -188l-76 -215zM319 319q0 -109 84 -108q35 0 91 6q47 6 92 16l35 9v190l-187 -8q-115 -7 -115 -105z" />
<glyph unicode="&#xe1;" horiz-adv-x="1095" d="M43 311q0 163 86 234q84 70 270 82l222 14v51q0 41 -29 66q-31 27 -74 26l-397 -16l-8 233q268 45 422 46q182 0 270 -82q90 -84 90 -271v-379q0 -61 12 -79q12 -16 54 -27l-9 -234q-127 0 -178 15q-53 14 -112 55q-170 -70 -314 -70q-152 0 -227 88q-78 90 -78 248z M180 1401l527 188l90 -260l-535 -160zM319 319q0 -109 84 -108q35 0 91 6q47 6 92 16l35 9v190l-187 -8q-115 -7 -115 -105z" />
<glyph unicode="&#xe2;" horiz-adv-x="1095" d="M43 311q0 163 86 234q84 70 270 82l222 14v51q0 41 -29 66q-31 27 -74 26l-397 -16l-8 233q268 45 422 46q182 0 270 -82q90 -84 90 -271v-379q0 -61 12 -79q12 -16 54 -27l-9 -234q-127 0 -178 15q-53 14 -112 55q-170 -70 -314 -70q-152 0 -227 88q-78 90 -78 248z M119 1188l268 352h221l271 -352h-293l-86 125l-88 -125h-293zM319 319q0 -109 84 -108q35 0 91 6q47 6 92 16l35 9v190l-187 -8q-115 -7 -115 -105z" />
<glyph unicode="&#xe3;" horiz-adv-x="1095" d="M43 311q0 163 86 234q84 70 270 82l222 14v51q0 41 -29 66q-31 27 -74 26l-397 -16l-8 233q268 45 422 46q182 0 270 -82q90 -84 90 -271v-379q0 -61 12 -79q12 -16 54 -27l-9 -234q-127 0 -178 15q-53 14 -112 55q-170 -70 -314 -70q-152 0 -227 88q-78 90 -78 248z M106 1411q8 10 33 34.5t80 59.5q59 37 107 37q68 0 176 -45q104 -43 125 -43q53 0 168 80l59 -207q-8 -10 -33 -35q-18 -18 -80 -57q-57 -37 -106 -37q-57 0 -166 45t-139 45q-27 0 -66 -20q-55 -31 -69 -41l-29 -21zM319 319q0 -109 84 -108q35 0 91 6q47 6 92 16l35 9v190 l-187 -8q-115 -7 -115 -105z" />
<glyph unicode="&#xe4;" horiz-adv-x="1095" d="M43 311q0 163 86 234q84 70 270 82l222 14v51q0 41 -29 66q-31 27 -74 26l-397 -16l-8 233q268 45 422 46q182 0 270 -82q90 -84 90 -271v-379q0 -61 12 -79q12 -16 54 -27l-9 -234q-127 0 -178 15q-53 14 -112 55q-170 -70 -314 -70q-152 0 -227 88q-78 90 -78 248z M156 1241v270h262v-270h-262zM319 319q0 -109 84 -108q35 0 91 6q47 6 92 16l35 9v190l-187 -8q-115 -7 -115 -105zM598 1241v270h262v-270h-262z" />
<glyph unicode="&#xe5;" horiz-adv-x="1095" d="M43 311q0 163 86 234q84 70 270 82l222 14v51q0 41 -29 66q-31 27 -74 26l-397 -16l-8 233q268 45 422 46q182 0 270 -82q90 -84 90 -271v-379q0 -61 12 -79q12 -16 54 -27l-9 -234q-127 0 -178 15q-53 14 -112 55q-170 -70 -314 -70q-152 0 -227 88q-78 90 -78 248z M287 1307q0 96 69 170q68 70 170 69q100 0 170 -69.5t70 -169.5q0 -102 -70 -170q-74 -70 -170 -70q-100 0 -169.5 70t-69.5 170zM319 319q0 -109 84 -108q35 0 91 6q47 6 92 16l35 9v190l-187 -8q-115 -7 -115 -105zM465 1307q0 -29 18 -47q16 -16 45 -17q27 0 45 19 q16 16 17 45q0 27 -17 43q-18 18 -45 18q-29 0 -45 -16q-18 -18 -18 -45z" />
<glyph unicode="&#xe6;" horiz-adv-x="1693" d="M106 311q0 164 88.5 233.5t268.5 82.5l221 14v51q0 41 -29 66q-31 27 -73 26q-70 0 -168 -6l-164 -10l-66 -6l-8 239q268 45 422 46q176 0 264 -76q106 76 273 76q446 0 446 -461l-20 -193h-603q2 -86 50 -127q45 -39 157 -39q166 0 379 19l4 -213q-231 -57 -426 -58 q-209 0 -313 99l-47 -23q-170 -76 -350 -76q-152 0 -228 88q-78 90 -78 248zM383 319q0 -109 84 -108q35 0 90 6q45 4 90 16l37 9q0 8 -1 39.5t-1 56.5v94l-184 -8q-115 -7 -115 -105zM958 604h353q0 109 -39 154t-137 45q-96 0 -138 -47q-39 -46 -39 -152z" />
<glyph unicode="&#xe7;" horiz-adv-x="890" d="M72 522q0 270 102 397.5t330 127.5q66 0 135 -11q18 -2 137 -22l55 -10l-8 -236q-174 16 -239 16q-141 0 -189 -55q-45 -53 -45 -207q0 -168 45 -225q47 -59 191 -59l237 16l8 -236q-164 -33 -274 -41v-53q131 -2 191 -39q61 -37 61 -145q0 -117 -59 -176 q-57 -57 -168 -58q-55 0 -88 5q-43 6 -74 12l-29 6l8 160q43 -2 99 -2q78 0 77 53q0 45 -77 45h-49v192q-200 12 -289 142q-88 127 -88 403z" />
<glyph unicode="&#xe8;" horiz-adv-x="1015" d="M68 498q0 549 452 549q446 0 447 -461l-21 -193h-602q2 -86 49 -127q45 -39 158 -39q166 0 379 19l4 -213q-231 -57 -426 -58q-231 0 -335.5 123.5t-104.5 399.5zM166 1303l84 243l526 -188l-76 -215zM342 604h354q0 106 -41 154q-39 45 -135 45q-94 0 -135 -47 q-39 -46 -43 -152z" />
<glyph unicode="&#xe9;" horiz-adv-x="1015" d="M68 498q0 549 452 549q446 0 447 -461l-21 -193h-602q2 -86 49 -127q45 -39 158 -39q166 0 379 19l4 -213q-231 -57 -426 -58q-231 0 -335.5 123.5t-104.5 399.5zM229 1401l527 188l90 -260l-535 -160zM342 604h354q0 106 -41 154q-39 45 -135 45q-94 0 -135 -47 q-39 -46 -43 -152z" />
<glyph unicode="&#xea;" horiz-adv-x="1015" d="M68 498q0 549 452 549q446 0 447 -461l-21 -193h-602q2 -86 49 -127q45 -39 158 -39q166 0 379 19l4 -213q-231 -57 -426 -58q-231 0 -335.5 123.5t-104.5 399.5zM160 1188l268 352h221l271 -352h-293l-86 125l-88 -125h-293zM342 604h354q0 106 -41 154q-39 45 -135 45 q-94 0 -135 -47q-39 -46 -43 -152z" />
<glyph unicode="&#xeb;" horiz-adv-x="1015" d="M68 498q0 549 452 549q446 0 447 -461l-21 -193h-602q2 -86 49 -127q45 -39 158 -39q166 0 379 19l4 -213q-231 -57 -426 -58q-231 0 -335.5 123.5t-104.5 399.5zM168 1241v270h262v-270h-262zM342 604h354q0 106 -41 154q-39 45 -135 45q-94 0 -135 -47 q-39 -46 -43 -152zM610 1241v270h262v-270h-262z" />
<glyph unicode="&#xec;" horiz-adv-x="532" d="M-57 1343l84 244l526 -188l-76 -215zM137 0v1022h275v-1022h-275z" />
<glyph unicode="&#xed;" horiz-adv-x="532" d="M-2 1401l526 188l90 -260l-534 -160zM137 0v1022h275v-1022h-275z" />
<glyph unicode="&#xee;" horiz-adv-x="546" d="M-117 1188l269 352h221l270 -352h-293l-86 125l-88 -125h-293zM137 0v1022h275v-1022h-275z" />
<glyph unicode="&#xef;" horiz-adv-x="532" d="M-88 1241v270h262v-270h-262zM137 0v1022h275v-1022h-275zM354 1241v270h262v-270h-262z" />
<glyph unicode="&#xf0;" d="M45 479q0 193 123 305q121 113 324 113q65 0 129 -12q70 -12 100 -25l33 -10q-8 106 -62 168q-57 68 -170 104l-211 -166l-110 156l84 66l-150 24l37 232q219 -16 367 -58l196 154l111 -156l-98 -78q301 -162 301 -585q0 -373 -123 -551t-400 -178q-236 0 -358 124 q-123 127 -123 373zM340 479q0 -244 186 -243q227 0 228 374q-100 47 -246 47q-76 0 -123 -53q-45 -51 -45 -125z" />
<glyph unicode="&#xf1;" horiz-adv-x="1173" d="M158 0v1022h274v-45q154 70 254 70q206 0 283 -123q78 -125 78 -389v-535h-275v535q0 131 -29 194q-27 61 -114 62q-37 0 -80 -9q-70 -12 -82 -16l-35 -10v-756h-274zM215 1411q8 10 32.5 34.5t80.5 59.5q57 37 106 37q68 0 176 -45q104 -43 125 -43q55 0 168 80l60 -207 q-8 -10 -33 -35q-18 -18 -80 -57q-59 -37 -107 -37q-59 0 -167.5 45t-137.5 45q-27 0 -65 -20q-55 -31 -70 -41l-29 -21z" />
<glyph unicode="&#xf2;" d="M72 512q0 252 108 395q106 139 362.5 139.5t362.5 -139.5q109 -143 109 -395t-109 -395q-108 -141 -362.5 -141.5t-362.5 141.5q-108 143 -108 395zM244 1343l84 244l526 -188l-76 -215zM350 512q0 -152 41 -219q43 -70 152 -70q106 0 149 70q43 72 43 219 q0 152 -43 219.5t-149 67.5q-109 0 -152 -68q-41 -63 -41 -219z" />
<glyph unicode="&#xf3;" d="M72 512q0 252 108 395q106 139 362.5 139.5t362.5 -139.5q109 -143 109 -395t-109 -395q-108 -141 -362.5 -141.5t-362.5 141.5q-108 143 -108 395zM195 1401l526 188l90 -260l-535 -160zM350 512q0 -152 41 -219q43 -70 152 -70q106 0 149 70q43 72 43 219 q0 152 -43 219.5t-149 67.5q-109 0 -152 -68q-41 -63 -41 -219z" />
<glyph unicode="&#xf4;" d="M72 512q0 252 108 395q106 139 362.5 139.5t362.5 -139.5q109 -143 109 -395t-109 -395q-108 -141 -362.5 -141.5t-362.5 141.5q-108 143 -108 395zM150 1188l268 352h221l270 -352h-293l-86 125l-88 -125h-292zM350 512q0 -152 41 -219q43 -70 152 -70q106 0 149 70 q43 72 43 219q0 152 -43 219.5t-149 67.5q-109 0 -152 -68q-41 -63 -41 -219z" />
<glyph unicode="&#xf5;" d="M72 512q0 252 108 395q106 139 362.5 139.5t362.5 -139.5q109 -143 109 -395t-109 -395q-108 -141 -362.5 -141.5t-362.5 141.5q-108 143 -108 395zM158 1411l35 35q29 29 77 59q57 37 107 37q68 0 176 -45q104 -43 125 -43q55 0 168 80l59 -207q-8 -10 -33 -35 q-18 -18 -79 -57q-59 -37 -107 -37q-57 0 -165.5 45t-139.5 45q-27 0 -66 -20q-55 -31 -69 -41l-29 -21zM350 512q0 -152 41 -219q43 -70 152 -70q106 0 149 70q43 72 43 219q0 152 -43 219.5t-149 67.5q-109 0 -152 -68q-41 -63 -41 -219z" />
<glyph unicode="&#xf6;" d="M72 512q0 252 108 395q106 139 362.5 139.5t362.5 -139.5q109 -143 109 -395t-109 -395q-108 -141 -362.5 -141.5t-362.5 141.5q-108 143 -108 395zM188 1241v270h263v-270h-263zM350 512q0 -152 41 -219q43 -70 152 -70q106 0 149 70q43 72 43 219q0 152 -43 219.5 t-149 67.5q-109 0 -152 -68q-41 -63 -41 -219zM631 1241v270h262v-270h-262z" />
<glyph unicode="&#xf7;" d="M20 469v250h1037v-250h-1037zM412 94v271h270v-271h-270zM412 823v271h270v-271h-270z" />
<glyph unicode="&#xf8;" d="M72 512q0 252 108 395q106 139 363 140q66 0 114 -11l82 207l166 -61l-84 -203q193 -119 193 -467q0 -252 -109 -395q-108 -141 -362 -142q-71 0 -129 13l-84 -209l-164 61l86 209q-180 123 -180 463zM350 512q0 -123 25 -188l188 473l-3 1q-3 1 -7 1h-10 q-109 0 -152 -68q-41 -63 -41 -219zM506 225q8 -2 37 -2q109 0 151 70q41 68 41 219q0 135 -33 199z" />
<glyph unicode="&#xf9;" horiz-adv-x="1146" d="M123 487v535h274v-535q0 -160 23 -211q25 -53 121 -53q25 0 80 10q70 12 81 17l35 8v764h275v-1022h-275v43q-160 -68 -254 -68q-215 0 -288 117q-72 112 -72 395zM176 1327l98 258l525 -188l-97 -250z" />
<glyph unicode="&#xfa;" horiz-adv-x="1146" d="M123 487v535h274v-535q0 -160 23 -211q25 -53 121 -53q25 0 80 10q70 12 81 17l35 8v764h275v-1022h-275v43q-160 -68 -254 -68q-215 0 -288 117q-72 112 -72 395zM225 1401l527 188l90 -260l-535 -160z" />
<glyph unicode="&#xfb;" horiz-adv-x="1146" d="M123 487v535h274v-535q0 -160 23 -211q25 -53 121 -53q25 0 80 10q70 12 81 17l35 8v764h275v-1022h-275v43q-160 -68 -254 -68q-215 0 -288 117q-72 112 -72 395zM139 1188l269 352h221l270 -352h-293l-86 125l-88 -125h-293z" />
<glyph unicode="&#xfc;" horiz-adv-x="1146" d="M123 487v535h274v-535q0 -160 23 -211q25 -53 121 -53q25 0 80 10q70 12 81 17l35 8v764h275v-1022h-275v43q-160 -68 -254 -68q-215 0 -288 117q-72 112 -72 395zM221 1241v270h262v-270h-262zM664 1241v270h262v-270h-262z" />
<glyph unicode="&#xfd;" horiz-adv-x="980" d="M-2 1022h270l187 -754h47l186 754h270l-358 -1450h-270l104 428h-184zM207 1401l526 188l90 -260l-534 -160z" />
<glyph unicode="&#xfe;" horiz-adv-x="1099" d="M150 -430v1864h274v-435q127 47 221 48q217 0 316 -119q98 -120 98 -406q0 -319 -115 -434q-113 -113 -395 -113l-62 5q-31 2 -63 2v-412h-274zM424 233q106 -10 125 -10q139 0 184 64q47 66 47 235q0 145 -45 209q-43 61 -127 62l-184 -17v-543z" />
<glyph unicode="&#xff;" horiz-adv-x="991" d="M16 1022h271l186 -754h47l187 754h270l-359 -1450h-270l105 428h-185zM158 1241v270h262v-270h-262zM600 1241v270h262v-270h-262z" />
<glyph unicode="&#x100;" horiz-adv-x="1236" d="M41 0l313 1413h537l307 -1413h-283l-63 238h-475l-53 -238h-283zM260 1622v238h711v-238h-711zM436 510h363l-133 643h-93z" />
<glyph unicode="&#x101;" horiz-adv-x="1079" d="M82 311q0 162 88 234q84 70 268 82l221 14v51q0 41 -28 66q-31 27 -74 26l-397 -16l-8 233q268 45 421 46q182 0 271 -82q90 -84 90 -271v-379q0 -61 12 -79q12 -16 53 -27l-8 -234q-127 0 -178 15q-53 14 -113 55q-170 -70 -313 -70q-152 0 -227 88q-78 90 -78 248z M201 1274v237h669v-237h-669zM358 319q0 -109 84 -108q35 0 90 6q47 6 93 16l34 9v190l-186 -8q-115 -7 -115 -105z" />
<glyph unicode="&#x102;" horiz-adv-x="1236" d="M41 0l313 1413h537l307 -1413h-283l-63 238h-475l-53 -238h-283zM238 1905h284q14 -80 96 -80q83 0 99 80h284q-14 -137 -110 -223.5t-273 -86.5q-175 0 -270 86q-96 87 -110 224zM436 510h363l-133 643h-93z" />
<glyph unicode="&#x103;" horiz-adv-x="1079" d="M82 311q0 162 88 234q84 70 268 82l221 14v51q0 41 -28 66q-31 27 -74 26l-397 -16l-8 233q268 45 421 46q182 0 271 -82q90 -84 90 -271v-379q0 -61 12 -79q12 -16 53 -27l-8 -234q-127 0 -178 15q-53 14 -113 55q-170 -70 -313 -70q-152 0 -227 88q-78 90 -78 248z M143 1532h285q16 -90 113 -90q100 0 112 90h285q-16 -154 -115 -244q-100 -90 -282.5 -90t-282.5 90q-99 90 -115 244zM358 319q0 -109 84 -108q35 0 90 6q47 6 93 16l34 9v190l-186 -8q-115 -7 -115 -105z" />
<glyph unicode="&#x104;" horiz-adv-x="1236" d="M41 0l313 1413h537l307 -1413h-12q-102 -86 -103 -156q0 -51 41 -51l78 6l27 -219q-125 -23 -209 -22q-96 0 -159.5 53t-63.5 143q0 138 135 246h-17l-63 238h-475l-53 -238h-283zM436 510h363l-133 643h-93z" />
<glyph unicode="&#x105;" horiz-adv-x="1079" d="M82 311q0 162 88 234q84 70 268 82l221 14v51q0 41 -28 66q-31 27 -74 26l-397 -16l-8 233q268 45 421 46q181 0 271 -80t90 -273v-379q0 -61 12 -79q12 -16 53 -27l-8 -234q-47 0 -57 2q-78 -74 -78 -133q0 -51 41 -51l78 6l26 -219q-125 -23 -208 -22q-94 0 -160 53 q-63 51 -64 143q0 51 17 90q23 53 41 76q25 31 49 55q18 18 43 35l16 13l-4 3q-4 3 -13 8t-18 11q-170 -70 -313 -70q-152 0 -227 88q-78 90 -78 248zM358 319q0 -109 84 -108q35 0 90 6q47 6 93 16l34 9v190l-186 -8q-115 -7 -115 -105z" />
<glyph unicode="&#x106;" horiz-adv-x="1081" d="M82 707q0 399 121 567q119 164 411 164q84 0 179 -15q125 -18 165 -28l64 -17l-8 -248q-258 29 -359 29q-114 0 -172 -37q-57 -35 -84 -133q-27 -94 -26 -282q0 -268 55 -360.5t236 -92.5q53 0 133 8q133 14 151 17l66 6l6 -254q-243 -55 -406 -56q-313 0 -421 170 q-111 173 -111 562zM295 1790l526 188l90 -260l-534 -159z" />
<glyph unicode="&#x107;" horiz-adv-x="890" d="M72 522q0 270 102 397.5t330 127.5q66 0 135 -11q18 -2 137 -22l55 -10l-8 -236q-174 16 -239 16q-141 0 -189 -55q-45 -53 -45 -207q0 -168 45 -225q47 -59 191 -59l237 16l8 -236q-217 -43 -333 -43q-229 0 -326 127q-100 131 -100 420zM180 1401l527 188l90 -260 l-535 -160z" />
<glyph unicode="&#x108;" horiz-adv-x="1081" d="M82 707q0 399 121 567q119 164 411 164q84 0 179 -15q125 -18 165 -28l64 -17l-8 -248q-258 29 -359 29q-114 0 -172 -37q-57 -35 -84 -133q-27 -94 -26 -282q0 -268 55 -360.5t236 -92.5q53 0 133 8q133 14 151 17l66 6l6 -254q-243 -55 -406 -56q-313 0 -421 170 q-111 173 -111 562zM207 1608l268 305h252l268 -305h-307l-84 88l-84 -88h-313z" />
<glyph unicode="&#x109;" horiz-adv-x="890" d="M70 1188l268 352h221l270 -352h-292l-86 125l-89 -125h-292zM72 522q0 270 102 397.5t330 127.5q66 0 135 -11q18 -2 137 -22l55 -10l-8 -236q-174 16 -239 16q-141 0 -189 -55q-45 -53 -45 -207q0 -168 45 -225q47 -59 191 -59l237 16l8 -236q-217 -43 -333 -43 q-229 0 -326 127q-100 131 -100 420z" />
<glyph unicode="&#x10a;" horiz-adv-x="1081" d="M82 707q0 399 121 567q119 164 411 164q84 0 179 -15q125 -18 165 -28l64 -17l-8 -248q-258 29 -359 29q-114 0 -172 -37q-57 -35 -84 -133q-27 -94 -26 -282q0 -268 55 -360.5t236 -92.5q53 0 133 8q133 14 151 17l66 6l6 -254q-243 -55 -406 -56q-313 0 -421 170 q-111 173 -111 562zM465 1591v277h274v-277h-274z" />
<glyph unicode="&#x10b;" horiz-adv-x="890" d="M72 522q0 270 102 397.5t330 127.5q66 0 135 -11q18 -2 137 -22l55 -10l-8 -236q-174 16 -239 16q-141 0 -189 -55q-45 -53 -45 -207q0 -168 45 -225q47 -59 191 -59l237 16l8 -236q-217 -43 -333 -43q-229 0 -326 127q-100 131 -100 420zM350 1139v276h275v-276h-275z " />
<glyph unicode="&#x10c;" horiz-adv-x="1081" d="M82 707q0 399 121 567q119 164 411 164q84 0 179 -15q125 -18 165 -28l64 -17l-8 -248q-258 29 -359 29q-114 0 -172 -37q-57 -35 -84 -133q-27 -94 -26 -282q0 -268 55 -360.5t236 -92.5q53 0 133 8q133 14 151 17l66 6l6 -254q-243 -55 -406 -56q-313 0 -421 170 q-111 173 -111 562zM227 1905h314l84 -95l84 95h307l-268 -303h-248z" />
<glyph unicode="&#x10d;" horiz-adv-x="890" d="M72 522q0 270 102 397.5t330 127.5q66 0 135 -11q18 -2 137 -22l55 -10l-8 -236q-174 16 -239 16q-141 0 -189 -55q-45 -53 -45 -207q0 -168 45 -225q47 -59 191 -59l237 16l8 -236q-217 -43 -333 -43q-229 0 -326 127q-100 131 -100 420zM113 1540h295l86 -123l84 123 h294l-266 -352h-229z" />
<glyph unicode="&#x10e;" horiz-adv-x="1280" d="M143 0v1413h465q182 0 297 -39q119 -41 182.5 -129t88.5 -207q25 -121 24 -305q0 -188 -22 -319q-20 -119 -86 -224q-63 -100 -180 -145t-304 -45h-465zM223 1905h314l84 -95l84 95h307l-269 -303h-247zM422 268h186q84 0 137.5 20.5t85.5 57.5q31 34 50 98q16 55 22 127 q6 63 6 162q0 61 -4 131q-2 49 -12 103q-8 47 -31 80q-20 29 -53 53q-35 27 -84 35q-55 10 -117 10h-186v-877z" />
<glyph unicode="&#x10f;" horiz-adv-x="1574" d="M72 522q0 268 106 398q104 127 318 127q33 0 88 -7q4 0 94 -14l39 -6v414h274v-1434h-274v41q-139 -63 -246 -64q-223 0 -311 131t-88 414zM350 522q0 -162 35 -223q37 -63 133 -68q90 4 199 29v520q-115 18 -201 19q-166 -1 -166 -277zM1153 883v532h266v-532h-266z" />
<glyph unicode="&#x110;" horiz-adv-x="1280" d="M33 567v271h110v575h465q182 0 297 -39q119 -41 182.5 -129t88.5 -207q25 -121 24 -305q0 -188 -22 -319q-20 -119 -86 -224q-63 -100 -180 -145t-304 -45h-465v567h-110zM422 268h186q84 0 137.5 20.5t85.5 57.5q31 34 50 98q16 55 22 127q6 63 6 162q0 61 -4 131 q-2 49 -12 103q-8 47 -31 80q-20 29 -53 53q-35 27 -84 35q-55 10 -117 10h-186v-307h266v-271h-266v-299z" />
<glyph unicode="&#x111;" horiz-adv-x="1116" d="M72 522q0 268 106 398q104 127 318 127q33 0 88 -7q4 0 94 -14l39 -6v254h-459v237h670v-77h63v-1434h-274v41q-139 -63 -246 -64q-223 0 -311 131t-88 414zM350 522q0 -162 35 -223q37 -63 133 -68q90 4 199 29v520q-115 18 -201 19q-166 -1 -166 -277z" />
<glyph unicode="&#x112;" horiz-adv-x="1130" d="M143 0v1413h897v-270h-618v-316h496v-264h-496v-293h618v-270h-897zM231 1642v238h711v-238h-711z" />
<glyph unicode="&#x113;" horiz-adv-x="1036" d="M72 498q0 549 452 549q446 0 447 -461l-21 -193h-602q2 -86 49 -127q45 -39 158 -39q166 0 379 19l4 -213q-231 -57 -426 -58q-231 0 -335.5 123.5t-104.5 399.5zM184 1274v237h670v-237h-670zM346 604h354q0 109 -38.5 154t-137.5 45q-96 0 -137 -47q-37 -43 -41 -152z " />
<glyph unicode="&#x114;" horiz-adv-x="1130" d="M143 0v1413h897v-270h-618v-316h496v-264h-496v-293h618v-270h-897zM225 1905h285q14 -80 96 -80q83 0 99 80h284q-14 -135 -112 -224q-95 -86 -270.5 -86t-270.5 86q-97 87 -111 224z" />
<glyph unicode="&#x115;" horiz-adv-x="1036" d="M72 498q0 549 452 549q446 0 447 -461l-21 -193h-602q2 -86 49 -127q45 -39 158 -39q166 0 379 19l4 -213q-231 -57 -426 -58q-231 0 -335.5 123.5t-104.5 399.5zM121 1532h285q16 -90 112 -90q100 0 113 90h284q-14 -152 -116 -244q-100 -90 -281 -90q-182 0 -282 90 q-99 90 -115 244zM346 604h354q0 109 -38.5 154t-137.5 45q-96 0 -137 -47q-37 -43 -41 -152z" />
<glyph unicode="&#x116;" horiz-adv-x="1130" d="M143 0v1413h897v-270h-618v-316h496v-264h-496v-293h618v-270h-897zM469 1591v277h274v-277h-274z" />
<glyph unicode="&#x117;" horiz-adv-x="1036" d="M72 498q0 549 452 549q446 0 447 -461l-21 -193h-602q2 -86 49 -127q45 -39 158 -39q166 0 379 19l4 -213q-231 -57 -426 -58q-231 0 -335.5 123.5t-104.5 399.5zM346 604h354q0 109 -38.5 154t-137.5 45q-96 0 -137 -47q-37 -43 -41 -152zM381 1139v276h274v-276h-274z " />
<glyph unicode="&#x118;" horiz-adv-x="1130" d="M143 0v1413h897v-270h-618v-316h496v-264h-496v-293h618v-270h-34q-102 -86 -103 -156q0 -51 41 -51l78 6l27 -219q-125 -23 -209 -22q-94 0 -160 53q-63 51 -64 143q0 138 136 246h-609z" />
<glyph unicode="&#x119;" horiz-adv-x="1036" d="M72 498q0 549 452 549q446 0 447 -461l-21 -193h-602q2 -86 49 -127q45 -39 158 -39q166 0 379 19l4 -213q-12 -2 -44 -9.5l-50 -11.5h4q-106 -86 -107 -157q0 -51 41 -52l78 7l27 -220q-125 -23 -209 -22q-96 0 -159.5 53t-63.5 143q0 115 96 211h-39 q-231 0 -335.5 123.5t-104.5 399.5zM346 604h354q0 109 -38.5 154t-137.5 45q-96 0 -137 -47q-37 -43 -41 -152z" />
<glyph unicode="&#x11a;" horiz-adv-x="1130" d="M143 0v1413h897v-270h-618v-316h496v-264h-496v-293h618v-270h-897zM264 1942h314l84 -95l83 95h308l-269 -304h-247z" />
<glyph unicode="&#x11b;" horiz-adv-x="1036" d="M72 498q0 549 452 549q446 0 447 -461l-21 -193h-602q2 -86 49 -127q45 -39 158 -39q166 0 379 19l4 -213q-231 -57 -426 -58q-231 0 -335.5 123.5t-104.5 399.5zM139 1540h295l86 -123l84 123h295l-266 -352h-230zM346 604h354q0 109 -38.5 154t-137.5 45 q-96 0 -137 -47q-37 -43 -41 -152z" />
<glyph unicode="&#x11c;" horiz-adv-x="1216" d="M82 711q0 387 127 557t432 170q104 0 217 -15q147 -18 195 -28l73 -17l-8 -243q-238 27 -432 26q-182 0 -247.5 -90t-65.5 -360.5t59 -366.5q57 -94 246 -94l170 8v240h-127v252h405v-727q-299 -47 -475 -48q-316 0 -442 179q-127 180 -127 557zM254 1608l268 305h252 l268 -305h-307l-84 88l-84 -88h-313z" />
<glyph unicode="&#x11d;" horiz-adv-x="1099" d="M72 -186q0 135 145 245q-74 51 -74 154q0 25 21 63q27 49 41 70l18 31q-139 102 -139 305q0 186 117 274q115 88 313 88q40 0 92 -6q25 -2 82 -14l33 -6l315 6v-219h-129q35 -63 35 -123q0 -206 -104 -283q-106 -78 -328 -77q-51 0 -84 8q-20 -49 -20 -80 q0 -43 36.5 -55.5t161.5 -12.5q256 0 352 -67q94 -68 95 -242q0 -187 -136 -276q-133 -88 -350 -89q-246 0 -370 66q-123 65 -123 240zM172 1188l268 352h222l270 -352h-293l-86 125l-88 -125h-293zM342 -158q0 -88 225 -88q207 0 207 103q0 57 -37 71q-31 12 -155 17 l-185 14q-55 -56 -55 -117zM358 682q0 -70 35 -100q34 -31 117 -31q90 0 125 29q37 31 37 102q0 68 -37 98.5t-123 30.5q-82 0 -119 -31q-35 -28 -35 -98z" />
<glyph unicode="&#x11e;" horiz-adv-x="1216" d="M82 711q0 387 127 557t432 170q104 0 217 -15q147 -18 195 -28l73 -17l-8 -243q-238 27 -432 26q-182 0 -247.5 -90t-65.5 -360.5t59 -366.5q57 -94 246 -94l170 8v240h-127v252h405v-727q-299 -47 -475 -48q-316 0 -442 179q-127 180 -127 557zM268 1905h285 q16 -80 96 -80q83 0 99 80h284q-14 -135 -112 -224q-95 -86 -270.5 -86t-270.5 86q-97 87 -111 224z" />
<glyph unicode="&#x11f;" horiz-adv-x="1099" d="M72 -186q0 135 145 245q-74 51 -74 154q0 25 21 63q27 49 41 70l18 31q-139 102 -139 305q0 186 117 274q115 88 313 88q40 0 92 -6q25 -2 82 -14l33 -6l315 6v-219h-129q35 -63 35 -123q0 -206 -104 -283q-106 -78 -328 -77q-51 0 -84 8q-20 -49 -20 -80 q0 -43 36.5 -55.5t161.5 -12.5q256 0 352 -67q94 -68 95 -242q0 -187 -136 -276q-133 -88 -350 -89q-246 0 -370 66q-123 65 -123 240zM154 1532h284q16 -90 113 -90q100 0 113 90h284q-14 -152 -117 -244q-100 -90 -280 -90t-281 90q-102 92 -116 244zM342 -158 q0 -88 225 -88q207 0 207 103q0 57 -37 71q-31 12 -155 17l-185 14q-55 -56 -55 -117zM358 682q0 -70 35 -100q34 -31 117 -31q90 0 125 29q37 31 37 102q0 68 -37 98.5t-123 30.5q-82 0 -119 -31q-35 -28 -35 -98z" />
<glyph unicode="&#x120;" horiz-adv-x="1216" d="M82 711q0 387 127 557t432 170q104 0 217 -15q147 -18 195 -28l73 -17l-8 -243q-238 27 -432 26q-182 0 -247.5 -90t-65.5 -360.5t59 -366.5q57 -94 246 -94l170 8v240h-127v252h405v-727q-299 -47 -475 -48q-316 0 -442 179q-127 180 -127 557zM492 1612v276h274v-276 h-274z" />
<glyph unicode="&#x121;" horiz-adv-x="1099" d="M72 -186q0 135 145 245q-74 51 -74 154q0 25 21 63q27 49 41 70l18 31q-139 102 -139 305q0 186 117 274q115 88 313 88q40 0 92 -6q25 -2 82 -14l33 -6l315 6v-219h-129q35 -63 35 -123q0 -206 -104 -283q-106 -78 -328 -77q-51 0 -84 8q-20 -49 -20 -80 q0 -43 36.5 -55.5t161.5 -12.5q256 0 352 -67q94 -68 95 -242q0 -187 -136 -276q-133 -88 -350 -89q-246 0 -370 66q-123 65 -123 240zM342 -158q0 -88 225 -88q207 0 207 103q0 57 -37 71q-31 12 -155 17l-185 14q-55 -56 -55 -117zM358 682q0 -70 35 -100q34 -31 117 -31 q90 0 125 29q37 31 37 102q0 68 -37 98.5t-123 30.5q-82 0 -119 -31q-35 -28 -35 -98zM414 1139v276h274v-276h-274z" />
<glyph unicode="&#x122;" horiz-adv-x="1216" d="M82 711q0 387 127 557t432 170q104 0 217 -15q147 -18 195 -28l73 -17l-8 -243q-238 27 -432 26q-182 0 -247.5 -90t-65.5 -360.5t59 -366.5q57 -94 246 -94l170 8v240h-127v252h405v-727q-299 -47 -475 -48q-316 0 -442 179q-127 180 -127 557zM426 -637l94 479h266 l-112 -479h-248z" />
<glyph unicode="&#x123;" horiz-adv-x="1099" d="M72 -186q0 135 145 245q-74 51 -74 154q0 25 21 63q27 49 41 70l18 31q-139 102 -139 305q0 186 117 274q115 88 313 88q40 0 92 -6q25 -2 82 -14l33 -6l315 6v-219h-129q35 -63 35 -123q0 -206 -104 -283q-106 -78 -328 -77q-51 0 -84 8q-20 -49 -20 -80 q0 -43 36.5 -55.5t161.5 -12.5q256 0 352 -67q94 -68 95 -242q0 -187 -136 -276q-133 -88 -350 -89q-246 0 -370 66q-123 65 -123 240zM342 -158q0 -88 225 -88q207 0 207 103q0 57 -37 71q-31 12 -155 17l-185 14q-55 -56 -55 -117zM344 1194l113 479h248l-95 -479h-266z M358 682q0 -70 35 -100q34 -31 117 -31q90 0 125 29q37 31 37 102q0 68 -37 98.5t-123 30.5q-82 0 -119 -31q-35 -28 -35 -98z" />
<glyph unicode="&#x124;" horiz-adv-x="1355" d="M143 0v1413h283v-557h518v557h283v-1413h-283v584h-518v-584h-283zM291 1595l268 306h252l268 -306h-307l-84 88l-84 -88h-313z" />
<glyph unicode="&#x125;" horiz-adv-x="1146" d="M137 0v1434h275v-441q160 53 254 54q206 0 282 -123q78 -125 78 -387v-537h-274v537q0 129 -29 192q-27 61 -115 62q-68 0 -196 -25v-766h-275zM195 1536l268 352h221l270 -352h-292l-87 125l-88 -125h-292z" />
<glyph unicode="&#x126;" horiz-adv-x="1355" d="M23 995v238h120v180h283v-180h518v180h283v-180h135v-238h-135v-995h-283v584h-518v-584h-283v995h-120zM426 856h518v139h-518v-139z" />
<glyph unicode="&#x127;" horiz-adv-x="1146" d="M35 1090v237h102v107h275v-107h293v-237h-293v-97q160 53 254 54q206 0 282 -123q78 -125 78 -387v-537h-274v537q0 129 -29 192q-27 61 -115 62q-68 0 -196 -25v-766h-275v1090h-102z" />
<glyph unicode="&#x128;" horiz-adv-x="567" d="M-109 1782q8 10 33 34.5t80 59.5q57 37 107 37q71 0 196 -43q131 -45 146 -45q55 0 168 80l59 -209q-8 -10 -32.5 -35t-80 -59.5t-106.5 -34.5q-59 0 -186.5 45t-159.5 45q-27 0 -66 -21q-55 -31 -69 -41l-29 -20zM143 0v1413h283v-1413h-283z" />
<glyph unicode="&#x129;" horiz-adv-x="546" d="M-115 1411q8 10 33 34.5t80 59.5q59 37 106 37q68 0 177 -45q104 -43 125 -43q53 0 167 80l60 -207q-8 -10 -33 -35q-18 -18 -80 -57q-57 -37 -106 -37q-57 0 -166 45t-139 45q-27 0 -66 -20q-55 -31 -70 -41l-28 -21zM137 0v1022h275v-1022h-275z" />
<glyph unicode="&#x12a;" horiz-adv-x="567" d="M-70 1665v238h711v-238h-711zM143 0v1413h283v-1413h-283z" />
<glyph unicode="&#x12b;" horiz-adv-x="546" d="M-59 1274v237h669v-237h-669zM137 0v1022h275v-1022h-275z" />
<glyph unicode="&#x12c;" horiz-adv-x="567" d="M-96 1905h284q16 -80 97 -80q83 0 98 80h285q-14 -137 -111 -224q-94 -86 -272 -86q-175 0 -271 86q-96 87 -110 224zM143 0v1413h283v-1413h-283z" />
<glyph unicode="&#x12d;" horiz-adv-x="546" d="M-123 1532h285q16 -90 112 -90q100 0 113 90h285q-16 -154 -115 -244q-100 -90 -282.5 -90t-282.5 90q-99 90 -115 244zM137 0v1022h275v-1022h-275z" />
<glyph unicode="&#x12e;" horiz-adv-x="567" d="M33 -246q0 138 135 246h-25v1413h283v-1413h-4q-102 -86 -103 -156q0 -51 41 -51l78 6l27 -219q-125 -23 -209 -22q-96 0 -159.5 53t-63.5 143z" />
<glyph unicode="&#x12f;" horiz-adv-x="546" d="M-1290 0v1022h274v-1022h-274zM-1290 1155v281h274v-281h-274zM18 -246q0 78 41 142q43 66 84 98l41 29l228 -21q-106 -86 -107 -158q0 -51 41 -51l78 6l27 -219q-125 -23 -209 -22q-94 0 -160 53q-64 51 -64 143z" />
<glyph unicode="&#x130;" horiz-adv-x="567" d="M143 0v1413h283v-1413h-283zM147 1591v277h275v-277h-275z" />
<glyph unicode="&#x131;" horiz-adv-x="532" d="M137 0v1022h275v-1022h-275z" />
<glyph unicode="&#x134;" horiz-adv-x="641" d="M-66 1595l269 306h252l268 -306h-307l-84 88l-84 -88h-314zM61 119q156 0 156 131v1163h281q0 -59 1 -254.5t1 -333.5v-589q0 -219 -98.5 -299t-340.5 -80v262z" />
<glyph unicode="&#x135;" horiz-adv-x="552" d="M-84 1188l268 352h222l270 -352h-293l-86 125l-88 -125h-293zM-70 -281q133 80 174 131q39 49 39 162v1010h275v-1012q0 -211 -74 -309t-291 -209z" />
<glyph unicode="&#x136;" horiz-adv-x="1212" d="M143 0v1413h283v-606l184 20l230 586h325l-303 -702l312 -711h-326l-234 555l-188 -20v-535h-283zM399 -637l95 479h266l-113 -479h-248z" />
<glyph unicode="&#x137;" horiz-adv-x="1058" d="M137 0v1434h275v-801l104 20l203 369h307l-264 -483l278 -539h-309l-209 385l-110 -20v-365h-275zM352 -637l94 479h267l-113 -479h-248z" />
<glyph unicode="&#x139;" horiz-adv-x="991" d="M143 0v1413h283v-1141h510v-272h-793zM197 1790l526 188l90 -260l-534 -159z" />
<glyph unicode="&#x13a;" horiz-adv-x="546" d="M-33 1831l527 188l90 -260l-535 -160zM137 0v1434h275v-1434h-275z" />
<glyph unicode="&#x13b;" horiz-adv-x="995" d="M143 0v1413h283v-1141h510v-272h-793zM315 -637l95 479h266l-113 -479h-248z" />
<glyph unicode="&#x13c;" horiz-adv-x="546" d="M45 -637l94 479h267l-113 -479h-248zM137 0v1434h275v-1434h-275z" />
<glyph unicode="&#x13d;" horiz-adv-x="995" d="M143 0v1413h283v-1141h510v-272h-793zM670 881v532h266v-532h-266z" />
<glyph unicode="&#x13e;" horiz-adv-x="995" d="M137 0v1434h275v-1434h-275zM586 881v532h266v-532h-266z" />
<glyph unicode="&#x141;" horiz-adv-x="995" d="M-76 569l219 154v690h283v-493l203 143l133 -184l-336 -236v-371h510v-272h-793v444l-86 -59z" />
<glyph unicode="&#x142;" horiz-adv-x="784" d="M18 559l238 166v709h274v-516l129 90l134 -185l-263 -184v-639h-274v446l-104 -71z" />
<glyph unicode="&#x143;" horiz-adv-x="1433" d="M143 0v1413h445l391 -1057h31v1057h282v-1413h-430l-405 1057h-31v-1057h-283zM410 1790l526 188l90 -260l-534 -159z" />
<glyph unicode="&#x144;" horiz-adv-x="1146" d="M137 0v1022h275v-45q154 70 254 70q206 0 282 -123q78 -125 78 -389v-535h-274v535q0 131 -29 194q-27 61 -115 62q-37 0 -80 -9q-76 -14 -84 -16l-32 -10v-756h-275zM266 1401l527 188l90 -260l-535 -160z" />
<glyph unicode="&#x145;" horiz-adv-x="1433" d="M143 0v1413h445l391 -1057h31v1057h282v-1413h-430l-405 1057h-31v-1057h-283zM537 -637l94 479h266l-113 -479h-247z" />
<glyph unicode="&#x146;" horiz-adv-x="1146" d="M137 0v1022h275v-45q154 70 254 70q206 0 282 -123q78 -125 78 -389v-535h-274v535q0 131 -29 194q-27 61 -115 62q-37 0 -80 -9q-76 -14 -84 -16l-32 -10v-756h-275zM387 -637l94 479h267l-113 -479h-248z" />
<glyph unicode="&#x147;" horiz-adv-x="1433" d="M143 0v1413h445l391 -1057h31v1057h282v-1413h-430l-405 1057h-31v-1057h-283zM322 1903h313l84 -95l84 95h307l-268 -304h-248z" />
<glyph unicode="&#x148;" horiz-adv-x="1146" d="M137 0v1022h275v-45q154 70 254 70q206 0 282 -123q78 -125 78 -389v-535h-274v535q0 131 -29 194q-27 61 -115 62q-37 0 -80 -9q-76 -14 -84 -16l-32 -10v-756h-275zM195 1540h294l86 -123l84 123h295l-266 -352h-229z" />
<glyph unicode="&#x14a;" horiz-adv-x="1433" d="M143 0v1413h445l391 -1057h31v1057h282v-1075v-393q0 -219 -98 -299t-340 -80v262q156 0 156 131v41h-148l-405 1057h-31v-1057h-283z" />
<glyph unicode="&#x14b;" horiz-adv-x="1146" d="M135 0v1022h275v-45q166 70 264 70q190 0 270 -132q82 -135 82 -380v-525q0 -215 -68 -313q-66 -96 -296 -205l-123 227q141 77 178 123q35 43 35 158v535q0 262 -136 262q-35 0 -81 -9q-20 -4 -89 -20l-36 -8v-760h-275z" />
<glyph unicode="&#x14c;" horiz-adv-x="1316" d="M82 696q0 377 131 559.5t446.5 182.5t446.5 -182.5t131 -559.5q0 -372 -129 -546t-449 -175q-317 0 -446 175q-131 177 -131 546zM303 1642v238h711v-238h-711zM373 696q0 -240 61.5 -344t225 -104t225 104.5t61.5 343.5q0 243 -61 357q-61 113 -225 112.5t-226 -112.5 q-61 -114 -61 -357z" />
<glyph unicode="&#x14d;" d="M72 512q0 252 108 395q106 139 362.5 139.5t362.5 -139.5q109 -143 109 -395t-109 -395q-108 -141 -362.5 -141.5t-362.5 141.5q-108 143 -108 395zM207 1274v237h670v-237h-670zM350 512q0 -152 41 -219q43 -70 152 -70q106 0 149 70q43 72 43 219q0 152 -43 219.5 t-149 67.5q-109 0 -152 -68q-41 -63 -41 -219z" />
<glyph unicode="&#x14e;" horiz-adv-x="1316" d="M82 696q0 377 131 559.5t446.5 182.5t446.5 -182.5t131 -559.5q0 -372 -129 -546t-449 -175q-317 0 -446 175q-131 177 -131 546zM279 1905h284q14 -80 96 -80q83 0 99 80h284q-14 -137 -110 -223.5t-273 -86.5q-175 0 -270 86q-96 87 -110 224zM373 696 q0 -240 61.5 -344t225 -104t225 104.5t61.5 343.5q0 243 -61 357q-61 113 -225 112.5t-226 -112.5q-61 -114 -61 -357z" />
<glyph unicode="&#x14f;" d="M72 512q0 252 108 395q106 139 362.5 139.5t362.5 -139.5q109 -143 109 -395t-109 -395q-108 -141 -362.5 -141.5t-362.5 141.5q-108 143 -108 395zM145 1532h285q16 -90 113 -90q100 0 112 90h285q-16 -154 -115 -244q-100 -90 -282.5 -90t-282.5 90q-99 90 -115 244z M350 512q0 -152 41 -219q43 -70 152 -70q106 0 149 70q43 72 43 219q0 152 -43 219.5t-149 67.5q-109 0 -152 -68q-41 -63 -41 -219z" />
<glyph unicode="&#x150;" horiz-adv-x="1316" d="M82 696q0 377 131 559.5t446.5 182.5t446.5 -182.5t131 -559.5q0 -372 -129 -546t-449 -175q-317 0 -446 175q-131 177 -131 546zM293 1610l137 403l258 -92l-160 -391zM373 696q0 -240 61.5 -344t225 -104t225 104.5t61.5 343.5q0 243 -61 357q-61 113 -225 112.5 t-226 -112.5q-61 -114 -61 -357zM739 1608l138 403l258 -92l-160 -391z" />
<glyph unicode="&#x151;" d="M72 512q0 252 108 395q106 139 362.5 139.5t362.5 -139.5q109 -143 109 -395t-109 -395q-108 -141 -362.5 -141.5t-362.5 141.5q-108 143 -108 395zM102 1286l240 387l223 -135l-256 -385zM350 512q0 -152 41 -219q43 -70 152 -70q106 0 149 70q43 72 43 219 q0 152 -43 219.5t-149 67.5q-109 0 -152 -68q-41 -63 -41 -219zM520 1286l240 389l223 -137l-256 -385z" />
<glyph unicode="&#x152;" horiz-adv-x="1931" d="M123 707q0 403 118.5 567t413.5 164q89 0 240 -25h897v-270h-618v-293h495v-268h-495v-312h618v-270h-893q-158 -25 -244 -25q-311 0 -419 170q-113 177 -113 562zM414 707q0 -264 57 -361q55 -92 234 -92q52 0 190 12v881q-145 12 -199 12q-114 0 -172 -37 q-57 -35 -84 -133q-26 -94 -26 -282z" />
<glyph unicode="&#x153;" horiz-adv-x="1792" d="M119 512q0 252 108 395q106 139 363 140q215 0 332 -111q114 111 313 111q446 0 446 -461l-20 -193h-602q2 -86 49 -127q45 -39 158 -39q168 0 379 19l4 -213q-231 -57 -426 -58q-209 0 -314 99q-115 -98 -319 -99q-255 0 -363 142q-108 143 -108 395zM397 512 q0 -152 41 -219q43 -70 152 -70q106 0 149 70q43 72 43 219q0 152 -43 219.5t-149 67.5q-109 0 -152 -68q-41 -63 -41 -219zM1057 604h354q0 106 -41 154q-39 45 -135 45t-137 -49q-41 -52 -41 -150z" />
<glyph unicode="&#x154;" horiz-adv-x="1251" d="M143 0v1413h541q254 0 373 -110.5t119 -358.5q0 -274 -205 -403l198 -541h-309l-164 457h-270v-457h-283zM317 1790l527 188l90 -260l-535 -159zM426 725h262q199 0 199 215q0 205 -203 205h-258v-420z" />
<glyph unicode="&#x155;" horiz-adv-x="735" d="M61 1401l527 188l90 -260l-535 -160zM137 0v1022h275v-96q125 90 284 121v-295q-82 -16 -151 -37q-74 -23 -103 -37l-30 -14v-664h-275z" />
<glyph unicode="&#x156;" horiz-adv-x="1255" d="M143 0v1413h541q254 0 373 -110.5t119 -358.5q0 -274 -205 -403l198 -541h-309l-164 457h-270v-457h-283zM426 725h262q199 0 199 215q0 205 -203 205h-258v-420zM438 -637l94 479h267l-113 -479h-248z" />
<glyph unicode="&#x157;" horiz-adv-x="735" d="M39 -637l94 479h266l-112 -479h-248zM137 0v1022h275v-96q125 90 284 121v-295q-82 -16 -151 -37q-74 -23 -103 -37l-30 -14v-664h-275z" />
<glyph unicode="&#x158;" horiz-adv-x="1251" d="M143 0v1413h541q254 0 373 -110.5t119 -358.5q0 -274 -205 -403l198 -541h-309l-164 457h-270v-457h-283zM231 1905h314l84 -95l84 95h307l-268 -303h-248zM426 725h262q199 0 199 215q0 205 -203 205h-258v-420z" />
<glyph unicode="&#x159;" horiz-adv-x="735" d="M-10 1540h295l86 -123l84 123h295l-267 -352h-229zM137 0v1022h275v-96q125 90 284 121v-295q-82 -16 -151 -37q-74 -23 -103 -37l-30 -14v-664h-275z" />
<glyph unicode="&#x15a;" d="M61 1022q0 203 133.5 309.5t370.5 106.5q78 0 178 -15q143 -20 181 -26l71 -15l-22 -252q-281 33 -408 33q-223 0 -223 -137q0 -66 55.5 -102.5t233.5 -92.5q227 -74 311 -159q82 -84 82 -266q0 -209 -135 -320t-361 -111q-158 0 -430 58l29 252q262 -35 399 -35 q113 0 166 35q51 33 51 114q0 68 -51 105q-53 37 -198 80q-242 72 -336 166q-97 96 -97 272zM254 1790l526 188l90 -260l-534 -159z" />
<glyph unicode="&#x15b;" horiz-adv-x="1015" d="M96 713q0 169 111 252q109 82 287 82q68 0 165 -13q70 -8 164 -26l68 -13l-4 -229q-248 33 -373 33q-88 0 -115 -19q-29 -18 -28 -61q0 -35 37 -51q33 -14 155 -33q209 -35 283 -103q76 -70 76 -225q0 -332 -414 -332q-151 0 -393 50l8 231q248 -33 358 -33 q92 0 129 18.5t37 59.5q0 35 -31 51q-35 16 -135 35q-211 37 -299 102q-86 64 -86 224zM201 1401l526 188l90 -260l-534 -160z" />
<glyph unicode="&#x15c;" d="M61 1022q0 203 133.5 309.5t370.5 106.5q78 0 178 -15q143 -20 181 -26l71 -15l-22 -252q-281 33 -408 33q-223 0 -223 -137q0 -66 55.5 -102.5t233.5 -92.5q227 -74 311 -159q82 -84 82 -266q0 -209 -135 -320t-361 -111q-158 0 -430 58l29 252q262 -35 399 -35 q113 0 166 35q51 33 51 114q0 68 -51 105q-53 37 -198 80q-242 72 -336 166q-97 96 -97 272zM168 1608l268 305h252l268 -305h-307l-84 88l-84 -88h-313z" />
<glyph unicode="&#x15d;" horiz-adv-x="1015" d="M96 713q0 169 111 252q109 82 287 82q68 0 165 -13q70 -8 164 -26l68 -13l-4 -229q-248 33 -373 33q-88 0 -115 -19q-29 -18 -28 -61q0 -35 37 -51q33 -14 155 -33q209 -35 283 -103q76 -70 76 -225q0 -332 -414 -332q-151 0 -393 50l8 231q248 -33 358 -33 q92 0 129 18.5t37 59.5q0 35 -31 51q-35 16 -135 35q-211 37 -299 102q-86 64 -86 224zM129 1188l268 352h221l271 -352h-293l-86 125l-88 -125h-293z" />
<glyph unicode="&#x15e;" d="M61 1022q0 203 133.5 309.5t370.5 106.5q78 0 178 -15q143 -20 181 -26l71 -15l-22 -252q-281 33 -408 33q-223 0 -223 -137q0 -66 55.5 -102.5t233.5 -92.5q227 -74 311 -159q82 -84 82 -266q0 -186 -109 -295q-106 -106 -292 -129v-58q131 -2 190 -39q61 -37 61 -145 q0 -117 -59 -176q-57 -57 -168 -58q-55 0 -88 5q-47 6 -76 12l-26 6l8 160q43 -2 98 -2q78 0 78 53q0 45 -78 45h-49v190q-88 4 -174 17l-172 26l-70 15l29 252q262 -35 399 -35q113 0 166 35q51 33 51 114q0 68 -51 105q-53 37 -198 80q-242 72 -336 166q-97 96 -97 272z " />
<glyph unicode="&#x15f;" horiz-adv-x="1015" d="M96 713q0 169 111 252q109 82 287 82q68 0 165 -13q70 -8 164 -26l68 -13l-4 -229q-248 33 -373 33q-88 0 -115 -19q-29 -18 -28 -61q0 -35 37 -51q33 -14 155 -33q209 -35 283 -103q76 -70 76 -225q0 -317 -373 -330v-53q133 -4 192.5 -39t59.5 -145q0 -117 -60 -176 q-57 -57 -168 -58q-55 0 -88 5q-43 6 -73 12l-29 6l8 160q43 -2 98 -2q78 0 78 53q0 45 -78 45h-49v195q-59 2 -147 16q-23 4 -67 9t-62 9l-49 11l8 231q248 -33 358 -33q92 0 129 18.5t37 59.5q0 35 -31 51q-35 16 -135 35q-211 37 -299 102q-86 64 -86 224z" />
<glyph unicode="&#x160;" d="M61 1022q0 203 133.5 309.5t370.5 106.5q78 0 178 -15q143 -20 181 -26l71 -15l-22 -252q-281 33 -408 33q-223 0 -223 -137q0 -66 55.5 -102.5t233.5 -92.5q227 -74 311 -159q82 -84 82 -266q0 -209 -135 -320t-361 -111q-158 0 -430 58l29 252q262 -35 399 -35 q113 0 166 35q51 33 51 114q0 68 -51 105q-53 37 -198 80q-242 72 -336 166q-97 96 -97 272zM172 1905h313l84 -95l84 95h308l-269 -303h-248z" />
<glyph unicode="&#x161;" horiz-adv-x="1015" d="M96 713q0 169 111 252q109 82 287 82q68 0 165 -13q70 -8 164 -26l68 -13l-4 -229q-248 33 -373 33q-88 0 -115 -19q-29 -18 -28 -61q0 -35 37 -51q33 -14 155 -33q209 -35 283 -103q76 -70 76 -225q0 -332 -414 -332q-151 0 -393 50l8 231q248 -33 358 -33 q92 0 129 18.5t37 59.5q0 35 -31 51q-35 16 -135 35q-211 37 -299 102q-86 64 -86 224zM152 1540h294l86 -123l84 123h295l-266 -352h-229z" />
<glyph unicode="&#x162;" horiz-adv-x="980" d="M-20 1141v272h1024v-272h-369v-1141h-283v1141h-372zM311 -637l95 479h266l-113 -479h-248z" />
<glyph unicode="&#x163;" horiz-adv-x="729" d="M31 774v248h121v287h274v-287h252v-248h-252v-387q0 -72 2 -88q2 -23 23 -43q18 -18 61 -18l156 4l12 -236q-138 -31 -209 -31q-184 0 -252 82q-68 83 -67 308v409h-121zM176 -637l94 479h267l-113 -479h-248z" />
<glyph unicode="&#x164;" horiz-adv-x="980" d="M-20 1141v272h1024v-272h-369v-1141h-283v1141h-372zM96 1905h314l84 -95l84 95h307l-269 -303h-247z" />
<glyph unicode="&#x165;" horiz-adv-x="1036" d="M31 774v248h121v287h274v-287h252v-248h-252v-387q0 -72 2 -88q2 -23 23 -43q18 -18 61 -18l156 4l12 -236q-138 -31 -209 -31q-184 0 -252 82q-68 83 -67 308v409h-121zM752 881v532h266v-532h-266z" />
<glyph unicode="&#x166;" horiz-adv-x="980" d="M-20 1141v272h1024v-272h-369v-385h285v-238h-285v-518h-283v518h-270v238h270v385h-372z" />
<glyph unicode="&#x167;" horiz-adv-x="729" d="M31 774v248h121v287h274v-287h252v-248h-252v-139h-274v139h-121zM53 397v238h99v-238h-99zM152 365v32h274v-10q0 -72 2 -88q2 -23 23 -43q18 -18 61 -18l156 4l12 -236q-138 -31 -209 -31q-184 0 -252 82q-67 84 -67 308zM426 397v238h231v-238h-231z" />
<glyph unicode="&#x168;" horiz-adv-x="1320" d="M123 471v942h283v-942q0 -117 65 -166q61 -47 182 -47q248 0 248 213v942h283v-942q0 -256 -131 -373q-132 -117 -400 -116q-264 0 -397 116.5t-133 372.5zM246 1802q8 10 32.5 35t79.5 59q59 37 107 37q66 0 197 -45q125 -43 145 -43q53 0 168 80l59 -209 q-8 -10 -32.5 -34.5t-80 -59.5t-106.5 -35q-59 0 -186 45t-160 45q-27 0 -66 -20q-55 -31 -69 -41l-29 -21z" />
<glyph unicode="&#x169;" horiz-adv-x="1146" d="M123 487v535h274v-535q0 -160 23 -211q25 -53 121 -53q25 0 80 10q70 12 81 17l35 8v764h275v-1022h-275v43q-160 -68 -254 -68q-215 0 -288 117q-72 112 -72 395zM184 1411q8 10 33 34.5t80 59.5q59 37 106 37q68 0 177 -45q104 -43 125 -43q53 0 167 80l60 -207 q-8 -10 -33 -35q-18 -18 -80 -57q-57 -37 -106 -37q-57 0 -166 45t-139 45q-27 0 -66 -20q-55 -31 -70 -41l-28 -21z" />
<glyph unicode="&#x16a;" horiz-adv-x="1320" d="M123 471v942h283v-942q0 -117 65 -166q61 -47 182 -47q248 0 248 213v942h283v-942q0 -256 -131 -373q-132 -117 -400 -116q-264 0 -397 116.5t-133 372.5zM305 1642v238h711v-238h-711z" />
<glyph unicode="&#x16b;" horiz-adv-x="1146" d="M123 487v535h274v-535q0 -160 23 -211q25 -53 121 -53q25 0 80 10q70 12 81 17l35 8v764h275v-1022h-275v43q-160 -68 -254 -68q-215 0 -288 117q-72 112 -72 395zM240 1274v237h669v-237h-669z" />
<glyph unicode="&#x16c;" horiz-adv-x="1320" d="M123 471v942h283v-942q0 -117 65 -166q61 -47 182 -47q248 0 248 213v942h283v-942q0 -256 -131 -373q-132 -117 -400 -116q-264 0 -397 116.5t-133 372.5zM281 1905h284q16 -80 97 -80q83 0 98 80h284q-14 -137 -110 -224q-94 -86 -272 -86q-175 0 -271 86 q-96 87 -110 224z" />
<glyph unicode="&#x16d;" horiz-adv-x="1146" d="M123 487v535h274v-535q0 -160 23 -211q25 -53 121 -53q25 0 80 10q70 12 81 17l35 8v764h275v-1022h-275v43q-160 -68 -254 -68q-215 0 -288 117q-72 112 -72 395zM176 1532h285q16 -90 112 -90q100 0 113 90h285q-16 -154 -115 -244q-100 -90 -282.5 -90t-282.5 90 q-99 90 -115 244z" />
<glyph unicode="&#x16e;" horiz-adv-x="1320" d="M123 471v942h283v-942q0 -117 65 -166q61 -47 182 -47q248 0 248 213v942h283v-942q0 -256 -131 -373q-132 -117 -400 -116q-264 0 -397 116.5t-133 372.5zM354 1718q0 121 88 189q92 70 219 69.5t220 -69.5q88 -68 88 -189q0 -123 -88 -190q-90 -68 -219.5 -68 t-219.5 68q-88 67 -88 190zM565 1718.5q0 -30.5 24.5 -49t72 -18.5t72 18.5t24.5 49t-24.5 49t-72 18.5t-72 -18.5t-24.5 -49z" />
<glyph unicode="&#x16f;" horiz-adv-x="1146" d="M123 487v535h274v-535q0 -160 23 -211q25 -53 121 -53q25 0 80 10q70 12 81 17l35 8v764h275v-1022h-275v43q-160 -68 -254 -68q-215 0 -288 117q-72 112 -72 395zM334 1307q0 96 69 170q68 70 170 69q100 0 170 -69.5t70 -169.5q0 -102 -70 -170q-74 -70 -170 -70 q-100 0 -169.5 70t-69.5 170zM512 1307q0 -29 18 -47q16 -16 45 -17q25 0 43.5 18.5t18.5 45.5q0 25 -18.5 43t-43.5 18q-29 0 -45 -16q-18 -18 -18 -45z" />
<glyph unicode="&#x170;" horiz-adv-x="1320" d="M123 471v942h283v-942q0 -117 65 -166q61 -47 182 -47q248 0 248 213v942h283v-942q0 -256 -131 -373q-132 -117 -400 -116q-264 0 -397 116.5t-133 372.5zM276 1610l138 403l258 -92l-160 -391zM723 1608l137 403l258 -92l-160 -391z" />
<glyph unicode="&#x171;" horiz-adv-x="1146" d="M123 487v535h274v-535q0 -160 23 -211q25 -53 121 -53q25 0 80 10q70 12 81 17l35 8v764h275v-1022h-275v43q-160 -68 -254 -68q-215 0 -288 117q-72 112 -72 395zM203 1286l239 387l224 -135l-256 -385zM621 1286l239 389l223 -137l-256 -385z" />
<glyph unicode="&#x172;" horiz-adv-x="1320" d="M123 471v942h283v-942q0 -117 65 -166q61 -47 182 -47q248 0 248 213v942h283v-942q0 -393 -326 -469h12q-106 -86 -106 -158q0 -51 41 -51l78 6l26 -219q-125 -23 -209 -22q-98 0 -161 53q-61 53 -62 143q0 125 115 230q-236 12 -352.5 128.5t-116.5 358.5z" />
<glyph unicode="&#x173;" horiz-adv-x="1146" d="M123 487v535h274v-535q0 -160 23 -211q25 -53 121 -53q25 0 80 10q70 12 81 17l35 8v764h275v-1022h-13l5 2l-228 21q-2 0 -12 -8.5t-19 -14.5h-8v43q-160 -68 -254 -68q-215 0 -288 117q-72 112 -72 395zM610 -246q0 138 135 246h254q-102 -86 -102 -156q0 -51 41 -51 l78 6l26 -219q-125 -23 -208 -22q-94 0 -160 53q-64 51 -64 143z" />
<glyph unicode="&#x174;" horiz-adv-x="1925" d="M49 1413h297l213 -1122h31l213 1122h321l213 -1122h31l213 1122h297l-315 -1413h-420l-180 997l-179 -997h-419zM567 1608l269 305h251l269 -305h-307l-84 88l-84 -88h-314z" />
<glyph unicode="&#x175;" horiz-adv-x="1536" d="M25 1022h270l125 -774h49l156 756h286l156 -756h49l125 774h270l-190 -1022h-440l-115 627l-117 -627h-434zM389 1188l268 352h222l270 -352h-293l-86 125l-88 -125h-293z" />
<glyph unicode="&#x176;" horiz-adv-x="1167" d="M20 1413h314l252 -493l250 493h313l-420 -811v-602h-283v604zM188 1608l269 305h252l268 -305h-307l-84 88l-84 -88h-314z" />
<glyph unicode="&#x177;" horiz-adv-x="991" d="M16 1022h271l186 -754h47l187 754h270l-359 -1450h-270l105 428h-185zM117 1188l268 352h221l271 -352h-293l-86 125l-88 -125h-293z" />
<glyph unicode="&#x178;" horiz-adv-x="1167" d="M20 1413h314l252 -493l250 493h313l-420 -811v-602h-283v604zM236 1626v270h262v-270h-262zM690 1626v270h262v-270h-262z" />
<glyph unicode="&#x179;" horiz-adv-x="1165" d="M123 0v272l559 838v31h-559v272h921v-272l-559 -838v-31h559v-272h-921zM274 1790l527 188l90 -260l-535 -159z" />
<glyph unicode="&#x17a;" horiz-adv-x="974" d="M109 0v248l430 528h-430v248h759v-248l-430 -528h430v-248h-759zM160 1401l526 188l90 -260l-534 -160z" />
<glyph unicode="&#x17b;" horiz-adv-x="1165" d="M123 0v272l559 838v31h-559v272h921v-272l-559 -838v-31h559v-272h-921zM446 1591v277h275v-277h-275z" />
<glyph unicode="&#x17c;" horiz-adv-x="974" d="M109 0v248l430 528h-430v248h759v-248l-430 -528h430v-248h-759zM350 1139v276h275v-276h-275z" />
<glyph unicode="&#x17d;" horiz-adv-x="1165" d="M123 0v272l559 838v31h-559v272h921v-272l-559 -838v-31h559v-272h-921zM213 1905h313l84 -95l84 95h307l-268 -303h-248z" />
<glyph unicode="&#x17e;" horiz-adv-x="974" d="M92 1540h295l86 -123l84 123h295l-266 -352h-230zM109 0v248l430 528h-430v248h759v-248l-430 -528h430v-248h-759z" />
<glyph unicode="&#x192;" d="M143 -264h35q20 0 82 -4q31 -2 72 -2q104 0 104 135v909h-110v248h110v47q0 221 63.5 303t235.5 82q39 0 90 -6q6 -2 14.5 -2t14.5 -2q4 0 14.5 -1t14.5 -3l28 -4q8 -2 23 -2q4 0 8 -1t8 -1q8 0 13 -5h2v-223q-119 4 -156 4q-55 0 -78 -32q-20 -29 -20 -109v-45h247v-248 h-247v-909q0 -207 -97 -287q-95 -80 -282 -80q-18 0 -80 8q-49 6 -78 13l-31 6v211z" />
<glyph unicode="&#x1fa;" horiz-adv-x="1236" d="M41 0l301 1360q-27 51 -27 117q0 123 88.5 190.5t219.5 67.5t219 -68t88 -190q0 -63 -29 -117l297 -1360h-283l-63 238h-475l-53 -238h-283zM291 1995l526 188l90 -260l-534 -160zM436 510h363l-133 643h-93zM526 1477q0 -51 60 -64h73q59 12 60 64q0 31 -24.5 49 t-71.5 18q-45 0 -70 -18q-27 -20 -27 -49z" />
<glyph unicode="&#x1fb;" horiz-adv-x="1079" d="M82 311q0 162 88 234q84 70 268 82l221 14v51q0 41 -28 66q-31 27 -74 26l-397 -16l-8 233q147 25 301 39q-68 23 -111 86q-43 61 -43 140q0 98 68 170q68 70 172 69q100 0 169.5 -69.5t69.5 -169.5q0 -72 -41 -136q-39 -59 -106 -88q150 -8 227 -94q76 -82 76 -254v-379 q0 -61 12 -79q12 -16 53 -27l-8 -234q-127 0 -178 15q-53 14 -113 55q-170 -70 -313 -70q-152 0 -227 88q-78 90 -78 248zM231 1812l527 189l90 -260l-535 -160zM358 319q0 -109 84 -108q35 0 90 6q47 6 93 16l34 9v190l-186 -8q-115 -7 -115 -105zM477 1266 q0 -31 16.5 -47.5t47.5 -16.5q27 0 45 19q16 16 16 45q0 25 -18.5 43t-42.5 18q-29 0 -45 -16q-19 -18 -19 -45z" />
<glyph unicode="&#x1fc;" horiz-adv-x="1656" d="M98 0l377 1413h1299v-270h-619v-293h496v-268h-496v-312h619v-270h-897v238h-437l-59 -238h-283zM510 510h367l2 633h-205zM520 1790l527 188l90 -260l-535 -159z" />
<glyph unicode="&#x1fd;" horiz-adv-x="1693" d="M106 311q0 164 88.5 233.5t268.5 82.5l221 14v51q0 41 -29 66q-31 27 -73 26q-70 0 -168 -6l-164 -10l-66 -6l-8 239q268 45 422 46q176 0 264 -76q106 76 273 76q446 0 446 -461l-20 -193h-603q2 -86 50 -127q45 -39 157 -39q166 0 379 19l4 -213q-231 -57 -426 -58 q-209 0 -313 99l-47 -23q-170 -76 -350 -76q-152 0 -228 88q-78 90 -78 248zM383 319q0 -109 84 -108q35 0 90 6q45 4 90 16l37 9q0 8 -1 39.5t-1 56.5v94l-184 -8q-115 -7 -115 -105zM559 1401l526 188l91 -260l-535 -160zM958 604h353q0 109 -39 154t-137 45 q-96 0 -138 -47q-39 -46 -39 -152z" />
<glyph unicode="&#x1fe;" horiz-adv-x="1341" d="M82 696q0 377 131 559.5t446 182.5q100 0 189 -21l117 250l256 -94l-138 -293q154 -175 154 -584q0 -369 -131 -546q-129 -174 -447 -175q-102 0 -176 17l-118 -256l-248 112l125 269q-160 161 -160 579zM326 1790l526 188l90 -260l-534 -159zM373 696q0 -156 22 -250 l332 713q-31 6 -68 6q-164 0 -225 -112q-61 -114 -61 -357zM604 250q10 -2 55 -2q164 0 225.5 104.5t61.5 343.5q0 150 -20 244z" />
<glyph unicode="&#x1ff;" d="M72 512q0 252 108 395q106 139 363 140q66 0 114 -11l82 207l166 -61l-84 -203q193 -119 193 -467q0 -252 -109 -395q-108 -141 -362 -142q-71 0 -129 13l-84 -209l-164 61l86 209q-180 123 -180 463zM233 1401l527 188l90 -260l-535 -160zM350 512q0 -123 25 -188 l188 473l-3 1q-3 1 -7 1h-10q-109 0 -152 -68q-41 -63 -41 -219zM506 225q8 -2 37 -2q109 0 151 70q41 68 41 219q0 135 -33 199z" />
<glyph unicode="&#x218;" d="M61 1022q0 203 133.5 309.5t370.5 106.5q78 0 178 -15q143 -20 181 -26l71 -15l-22 -252q-281 33 -408 33q-223 0 -223 -137q0 -66 55.5 -102.5t233.5 -92.5q227 -74 311 -159q82 -84 82 -266q0 -209 -135 -320t-361 -111q-158 0 -430 58l29 252q262 -35 399 -35 q113 0 166 35q51 33 51 114q0 68 -51 105q-53 37 -198 80q-242 72 -336 166q-97 96 -97 272zM324 -637l94 479h266l-113 -479h-247z" />
<glyph unicode="&#x219;" horiz-adv-x="1015" d="M96 713q0 169 111 252q109 82 287 82q68 0 165 -13q70 -8 164 -26l68 -13l-4 -229q-248 33 -373 33q-88 0 -115 -19q-29 -18 -28 -61q0 -35 37 -51q33 -14 155 -33q209 -35 283 -103q76 -70 76 -225q0 -332 -414 -332q-151 0 -393 50l8 231q248 -33 358 -33 q92 0 129 18.5t37 59.5q0 35 -31 51q-35 16 -135 35q-211 37 -299 102q-86 64 -86 224zM328 -637l94 479h266l-113 -479h-247z" />
<glyph unicode="&#x2c6;" horiz-adv-x="546" d="M-84 1188l268 352h222l270 -352h-293l-86 125l-88 -125h-293z" />
<glyph unicode="&#x2c7;" horiz-adv-x="546" d="M-72 1540h295l86 -123l84 123h295l-266 -352h-229z" />
<glyph unicode="&#x2d8;" horiz-adv-x="546" d="M-102 1532h284q16 -90 113 -90q100 0 113 90h284q-14 -152 -117 -244q-100 -90 -280 -90t-281 90q-102 92 -116 244z" />
<glyph unicode="&#x2d9;" horiz-adv-x="546" d="M137 1139v276h275v-276h-275z" />
<glyph unicode="&#x2da;" horiz-adv-x="546" d="M41 1307q0 98 68 170q68 70 172 69q100 0 169.5 -69.5t69.5 -169.5q0 -102 -69 -170q-74 -70 -170 -70q-100 0 -170 70t-70 170zM219 1307q0 -31 16.5 -47.5t47.5 -16.5q27 0 45 19q16 16 16 45q0 25 -18.5 43t-42.5 18q-29 0 -45 -16q-19 -18 -19 -45z" />
<glyph unicode="&#x2db;" horiz-adv-x="968" d="M449 -246q0 74 43 142q43 70 81 98l41 29l228 -21q-106 -86 -107 -158q0 -51 41 -51l78 6l27 -219q-125 -23 -209 -22q-96 0 -159.5 53t-63.5 143z" />
<glyph unicode="&#x2dc;" horiz-adv-x="546" d="M-72 1411q8 10 33 34.5t80 59.5q57 37 106 37q68 0 177 -45q104 -43 125 -43q55 0 167 80l60 -207q-8 -10 -33 -35q-18 -18 -80 -57q-59 -37 -106 -37q-57 0 -166 45t-139 45q-27 0 -66 -20q-55 -31 -70 -41l-28 -21z" />
<glyph unicode="&#x2dd;" horiz-adv-x="546" d="M-102 1286l239 387l223 -135l-256 -385zM315 1286l240 389l223 -137l-256 -385z" />
<glyph unicode="&#x300;" horiz-adv-x="546" d="M12 1343l84 244l527 -188l-76 -215z" />
<glyph unicode="&#x301;" horiz-adv-x="546" d="M-23 1401l527 188l90 -260l-535 -160z" />
<glyph unicode="&#x302;" horiz-adv-x="546" d="M-61 1188l268 352h221l270 -352h-292l-87 125l-88 -125h-292z" />
<glyph unicode="&#x303;" horiz-adv-x="546" d="M-72 1411q8 10 33 34.5t80 59.5q57 37 106 37q68 0 177 -45q104 -43 125 -43q55 0 167 80l60 -207q-8 -10 -33 -35q-18 -18 -80 -57q-59 -37 -106 -37q-57 0 -166 45t-139 45q-27 0 -66 -20q-55 -31 -70 -41l-28 -21z" />
<glyph unicode="&#x304;" horiz-adv-x="546" d="M-51 1274v237h669v-237h-669z" />
<glyph unicode="&#x306;" horiz-adv-x="546" d="M-102 1532h284q16 -90 113 -90q100 0 113 90h284q-14 -152 -117 -244q-100 -90 -280 -90t-281 90q-102 92 -116 244z" />
<glyph unicode="&#x307;" horiz-adv-x="546" d="M137 1139v276h275v-276h-275z" />
<glyph unicode="&#x308;" horiz-adv-x="546" d="M-61 1241v270h262v-270h-262zM381 1241v270h262v-270h-262z" />
<glyph unicode="&#x30a;" horiz-adv-x="546" d="M51 1307q0 98 68 170q68 70 172 69q100 0 169.5 -69.5t69.5 -169.5q0 -102 -69 -170q-74 -70 -170 -70q-100 0 -170 70t-70 170zM229 1307q0 -29 19 -47q16 -16 45 -17q25 0 43 18.5t18 45.5q0 25 -18.5 43t-42.5 18q-29 0 -45 -16q-19 -18 -19 -45z" />
<glyph unicode="&#x30b;" horiz-adv-x="546" d="M-102 1286l239 387l223 -135l-256 -385zM315 1286l240 389l223 -137l-256 -385z" />
<glyph unicode="&#x30c;" horiz-adv-x="546" d="M-92 1540h295l86 -123l84 123h295l-267 -352h-229z" />
<glyph unicode="&#x312;" horiz-adv-x="346" d="M-10 1194l112 479h248l-94 -479h-266z" />
<glyph unicode="&#x315;" horiz-adv-x="356" d="M35 881v532h266v-532h-266z" />
<glyph unicode="&#x326;" horiz-adv-x="346" d="M-10 -637l94 479h266l-112 -479h-248z" />
<glyph unicode="&#x327;" horiz-adv-x="1703" d="M745 -471l9 160q43 -2 98 -2q78 0 78 53q0 45 -78 45h-49v217h108v-78q131 -2 191 -39q61 -37 61 -145q0 -117 -59 -176q-57 -57 -168 -58q-53 0 -86 5q-51 6 -78 12z" />
<glyph unicode="&#x328;" horiz-adv-x="968" d="M449 -246q0 74 43 142q43 70 81 98l41 29l228 -21q-106 -86 -107 -158q0 -51 41 -51l78 6l27 -219q-125 -23 -209 -22q-96 0 -159.5 53t-63.5 143z" />
<glyph unicode="&#x394;" d="M61 0v233l254 1180h461l252 -1184v-229h-967zM344 254h404l-183 905h-37z" />
<glyph unicode="&#x2206;" d="M61 0v233l254 1180h461l252 -1184v-229h-967zM344 254h404l-183 905h-37z" />
<glyph unicode="&#x3a9;" d="M57 758q0 332 111 473t375 141q262 0 375 -143q111 -141 110 -471q0 -131 -41 -266q-39 -129 -82 -199l-39 -66h144v-245h-426v225q8 12 45 78q23 39 71 184q45 133 45 248q0 207 -40 305q-39 94 -162 94q-129 0 -166 -90q-37 -88 -37 -309q0 -113 41 -242 q37 -117 82 -196l39 -72v-225h-426v245h143l-45 72q-23 37 -72 186q-45 136 -45 273z" />
<glyph unicode="&#x2126;" d="M57 758q0 332 111 473t375 141q262 0 375 -143q111 -141 110 -471q0 -131 -41 -266q-39 -129 -82 -199l-39 -66h144v-245h-426v225q8 12 45 78q23 39 71 184q45 133 45 248q0 207 -40 305q-39 94 -162 94q-129 0 -166 -90q-37 -88 -37 -309q0 -113 41 -242 q37 -117 82 -196l39 -72v-225h-426v245h143l-45 72q-23 37 -72 186q-45 136 -45 273z" />
<glyph unicode="&#x3c0;" d="M8 758v239q66 12 127 17q29 2 129 8l51 2h443q197 0 295 33v-240q-49 -25 -152 -31v-471q0 -55 28.5 -77.5t112.5 -22.5v-235q-133 0 -221 16q-86 16 -127 57q-43 43 -55 101q-14 68 -14 161v469h-172l-54 -784h-276l53 784z" />
<glyph unicode="&#x1e80;" horiz-adv-x="1925" d="M49 1413h297l213 -1122h31l213 1122h321l213 -1122h31l213 1122h297l-315 -1413h-420l-180 997l-179 -997h-419zM700 1696l91 260l526 -189l-82 -231z" />
<glyph unicode="&#x1e81;" horiz-adv-x="1536" d="M25 1022h270l125 -774h49l156 756h286l156 -756h49l125 774h270l-190 -1022h-440l-115 627l-117 -627h-434zM465 1343l84 244l526 -188l-76 -215z" />
<glyph unicode="&#x1e82;" horiz-adv-x="1925" d="M49 1413h297l213 -1122h31l213 1122h321l213 -1122h31l213 1122h297l-315 -1413h-420l-180 997l-179 -997h-419zM655 1790l527 188l90 -260l-535 -159z" />
<glyph unicode="&#x1e83;" horiz-adv-x="1536" d="M25 1022h270l125 -774h49l156 756h286l156 -756h49l125 774h270l-190 -1022h-440l-115 627l-117 -627h-434zM459 1401l526 188l90 -260l-534 -160z" />
<glyph unicode="&#x1e84;" horiz-adv-x="1925" d="M49 1413h297l213 -1122h31l213 1122h321l213 -1122h31l213 1122h297l-315 -1413h-420l-180 997l-179 -997h-419zM604 1626v270h262v-270h-262zM1059 1626v270h262v-270h-262z" />
<glyph unicode="&#x1e85;" horiz-adv-x="1536" d="M25 1022h270l125 -774h49l156 756h286l156 -756h49l125 774h270l-190 -1022h-440l-115 627l-117 -627h-434zM416 1241v270h262v-270h-262zM858 1241v270h262v-270h-262z" />
<glyph unicode="&#x1eab;" horiz-adv-x="1079" d="M82 311q0 162 88 234q84 70 268 82l221 14v51q0 41 -28 66q-31 27 -74 26l-397 -16l-8 233q268 45 421 46q182 0 271 -82q90 -84 90 -271v-379q0 -61 12 -79q12 -16 53 -27l-8 -234q-127 0 -178 15q-53 14 -113 55q-170 -70 -313 -70q-152 0 -227 88q-78 90 -78 248z M121 1739q8 10 32.5 34.5t79.5 59.5q57 37 107 37q72 0 176 -43q109 -45 125 -45q55 0 168 80l59 -207l-34 -35q-29 -29 -78 -59q-55 -35 -107 -35q-57 0 -165.5 45t-139.5 45q-27 0 -65 -21q-55 -31 -70 -41l-29 -20zM123 1126l268 353h221l271 -353h-293l-86 125l-88 -125 h-293zM358 319q0 -109 84 -108q35 0 90 6q47 6 93 16l34 9v190l-186 -8q-115 -7 -115 -105z" />
<glyph unicode="&#x1eb0;" horiz-adv-x="1236" d="M41 0l313 1413h537l307 -1413h-283l-63 238h-475l-53 -238h-283zM215 2083l84 244l526 -189l-75 -215zM248 1823h284q16 -80 97 -80q83 0 98 80h285q-14 -137 -111 -224q-94 -86 -272 -86q-175 0 -271 86q-96 87 -110 224zM436 510h363l-133 643h-93z" />
<glyph unicode="&#x1ec5;" horiz-adv-x="1036" d="M72 498q0 549 452 549q446 0 447 -461l-21 -193h-602q2 -86 49 -127q45 -39 158 -39q166 0 379 19l4 -213q-231 -57 -426 -58q-231 0 -335.5 123.5t-104.5 399.5zM139 1739q8 10 33 34.5t80 59.5q59 37 106 37q72 0 177 -43q109 -45 124 -45q53 0 168 80l60 -207 q-8 -10 -33 -35t-80 -59.5t-106 -34.5q-57 0 -166 45t-140 45q-27 0 -65 -21q-55 -31 -70 -41l-28 -20zM156 1126l268 353h221l270 -353h-292l-86 125l-88 -125h-293zM346 604h354q0 109 -38.5 154t-137.5 45q-96 0 -137 -47q-37 -43 -41 -152z" />
<glyph unicode="&#x1ed7;" d="M72 512q0 252 108 395q106 139 362.5 139.5t362.5 -139.5q109 -143 109 -395t-109 -395q-108 -141 -362.5 -141.5t-362.5 141.5q-108 143 -108 395zM141 1739q8 10 33 34.5t80 59.5q57 37 106 37q72 0 177 -43q109 -45 125 -45q55 0 167 80l60 -207q-8 -10 -33 -35 t-80 -59.5t-106 -34.5q-57 0 -166 45t-139 45q-27 0 -66 -21q-55 -31 -70 -41l-28 -20zM164 1126l268 353h221l271 -353h-293l-86 125l-88 -125h-293zM350 512q0 -152 41 -219q43 -70 152 -70q106 0 149 70q43 72 43 219q0 152 -43 219.5t-149 67.5q-109 0 -152 -68 q-41 -63 -41 -219z" />
<glyph unicode="&#x1ef2;" horiz-adv-x="1167" d="M20 1413h314l252 -493l250 493h313l-420 -811v-602h-283v604zM322 1696l90 260l526 -189l-82 -231z" />
<glyph unicode="&#x1ef3;" horiz-adv-x="991" d="M16 1022h271l186 -754h47l187 754h270l-359 -1450h-270l105 428h-185zM195 1343l84 244l526 -188l-76 -215z" />
<glyph unicode="&#x1ef8;" horiz-adv-x="1167" d="M20 1413h314l252 -493l250 493h313l-420 -811v-602h-283v604zM205 1802q8 10 32.5 35t79.5 59q59 37 107 37q68 0 176 -45q104 -43 125 -43q53 0 168 80l59 -207l-34 -35q-29 -29 -78 -59q-55 -35 -107 -35q-57 0 -165.5 45t-139.5 45q-27 0 -66 -20q-55 -29 -69 -41 l-29 -21z" />
<glyph unicode="&#x1ef9;" horiz-adv-x="991" d="M16 1022h271l186 -754h47l187 754h270l-359 -1450h-270l105 428h-185zM117 1411q8 10 32.5 34.5t79.5 59.5q57 37 107 37q68 0 176 -45q104 -43 125 -43q55 0 168 80l59 -207q-8 -10 -33 -35q-18 -18 -79 -57q-59 -37 -107 -37q-57 0 -165.5 45t-139.5 45q-27 0 -66 -20 q-55 -31 -69 -41l-29 -21z" />
<glyph unicode="&#x2000;" horiz-adv-x="1161" />
<glyph unicode="&#x2001;" horiz-adv-x="2326" />
<glyph unicode="&#x2002;" horiz-adv-x="1161" />
<glyph unicode="&#x2003;" horiz-adv-x="2326" />
<glyph unicode="&#x2004;" horiz-adv-x="774" />
<glyph unicode="&#x2005;" horiz-adv-x="579" />
<glyph unicode="&#x2006;" horiz-adv-x="385" />
<glyph unicode="&#x2007;" horiz-adv-x="385" />
<glyph unicode="&#x2008;" horiz-adv-x="288" />
<glyph unicode="&#x2009;" horiz-adv-x="464" />
<glyph unicode="&#x200a;" horiz-adv-x="126" />
<glyph unicode="&#x2010;" horiz-adv-x="899" d="M143 440v271h615v-271h-615z" />
<glyph unicode="&#x2011;" horiz-adv-x="899" d="M143 440v271h615v-271h-615z" />
<glyph unicode="&#x2012;" horiz-adv-x="899" d="M143 440v271h615v-271h-615z" />
<glyph unicode="&#x2013;" horiz-adv-x="1024" d="M0 436v250h1024v-250h-1024z" />
<glyph unicode="&#x2014;" horiz-adv-x="2048" d="M0 436v250h2048v-250h-2048z" />
<glyph unicode="&#x2018;" horiz-adv-x="346" d="M-45 983l119 506h264l-102 -506h-281z" />
<glyph unicode="&#x2019;" horiz-adv-x="346" d="M8 1079l103 506h278l-117 -506h-264z" />
<glyph unicode="&#x201a;" horiz-adv-x="456" d="M-6 -266l119 506h264l-103 -506h-280z" />
<glyph unicode="&#x201c;" d="M184 983l119 506h264l-102 -506h-281zM524 983l119 506h264l-102 -506h-281z" />
<glyph unicode="&#x201d;" d="M184 973l103 506h278l-119 -506h-262zM539 973l102 506h281l-119 -506h-264z" />
<glyph unicode="&#x201e;" horiz-adv-x="950" d="M-6 -266l119 506h264l-103 -506h-280zM446 -266l119 506h264l-102 -506h-281z" />
<glyph unicode="&#x2020;" d="M109 748v270h299v352h270v-352h299v-270h-299v-893h-270v893h-299z" />
<glyph unicode="&#x2021;" d="M109 207v270h299v271h-299v270h299v352h270v-352h297v-270h-297v-271h299v-270h-299v-352h-270v352h-299z" />
<glyph unicode="&#x2022;" d="M297 205v573h491v-573h-491z" />
<glyph unicode="&#x2026;" horiz-adv-x="1521" d="M111 0v340h295v-340h-295zM633 0v340h295v-340h-295zM1155 0v340h295v-340h-295z" />
<glyph unicode="&#x202f;" horiz-adv-x="464" />
<glyph unicode="&#x2030;" horiz-adv-x="1703" d="M12 1139q0 297 246 297t246 -297q0 -299 -246 -299t-246 299zM213 1139q0 -78 8 -105q9 -31 37 -30.5t37 30.5q8 27 8 105q0 76 -8 102q-9 31 -37 31t-37 -31q-8 -26 -8 -102zM274 -4l394 1479l176 -48l-393 -1476zM610 299q0 297 246 297t246 -297q0 -299 -246 -299 t-246 299zM811 299q0 -78 8 -104q9 -31 37 -31t37 31q8 27 8 104.5t-8 103.5q-8 29 -37 29t-37 -29q-8 -26 -8 -104zM1137 299q0 297 245.5 297t245.5 -297q0 -299 -245.5 -299t-245.5 299zM1337 299q0 -78 9 -104q9 -31 36 -31t35 31q10 35 10 104.5t-10 103.5 q-8 29 -35 29q-29 0 -36 -29q-9 -26 -9 -104z" />
<glyph unicode="&#x2039;" horiz-adv-x="823" d="M184 397v197l457 336v-277l-223 -153l223 -176v-277z" />
<glyph unicode="&#x203a;" horiz-adv-x="823" d="M184 68v276l224 176l-224 154v276l457 -336v-196z" />
<glyph unicode="&#x205f;" horiz-adv-x="579" />
<glyph unicode="&#x2070;" horiz-adv-x="540" d="M10 1294.5q0 192.5 64 268.5q66 78 201 77.5t200 -77.5q63 -76 63.5 -268.5t-63.5 -264.5q-66 -74 -201 -74t-200 74q-64 72 -64 264.5zM236 1294q0 -68 6 -98q6 -33 12 -39t20 -6q22 0 31 25q8 23 8 118q0 98 -8 123q-10 29 -31 29q-12 0 -22 -10q-9 -9 -12 -43 q-4 -46 -4 -99z" />
<glyph unicode="&#x2074;" horiz-adv-x="540" d="M20 1051v180l80 387h242l-106 -373h55l28 185h187v-185h22v-194h-22v-72h-215v72h-271z" />
<glyph unicode="&#x2075;" horiz-adv-x="540" d="M37 993l16 174q114 -18 191 -18q51 0 51 31q0 33 -29 32l-53 -8l-160 23l23 391h424v-184h-254l-6 -52q59 12 90 13q190 0 190 -203q0 -227 -241 -227q-25 0 -107 8q-61 6 -98 12z" />
<glyph unicode="&#x2076;" horiz-adv-x="540" d="M18 1274q0 182 61.5 274t219.5 92q34 0 86 -6q55 -6 90 -12l37 -6l-12 -178q-135 12 -193 12q-68 0 -67 -53l12 2q14 4 33 6q14 2 32 2q109 0 162 -53q51 -51 51 -162t-69 -174q-68 -61 -174 -62q-269 1 -269 318zM240 1214q0 -70 36 -69q35 0 35 43t-32 43q-8 0 -21 -4 q-8 -2 -14 -8z" />
<glyph unicode="&#x2077;" horiz-adv-x="540" d="M43 1403v215h465v-207l-195 -453l-247 39l186 379v27h-209z" />
<glyph unicode="&#x2078;" horiz-adv-x="540" d="M10 1171q0 88 66 142q-55 39 -56 145q0 182 252 182q254 0 254 -184q0 -92 -55 -145q6 -3 18 -13q10 -8 29 -45q16 -33 17 -82q0 -117 -66 -165q-65 -49 -197 -50q-133 0 -198 50q-64 48 -64 165zM233 1176q0 -45 39 -45.5t39 45.5q0 27 -24 51h-29q-25 -24 -25 -51z M236 1427q0 -25 22 -51h29q23 29 22 51q0 39 -36.5 39t-36.5 -39z" />
<glyph unicode="&#x2079;" horiz-adv-x="540" d="M18 1403q0 115 66 176q63 61 178 61q268 0 268 -337q0 -176 -61 -263q-59 -84 -207 -84q-43 0 -98 7q-16 2 -32.5 5l-33 6t-22.5 5l-35 6l12 178q101 -12 178 -12q68 0 68 47l-10 -2q-2 0 -5 -1t-6.5 -1t-8.5 -1t-9 -1q-12 -2 -33 -2q-209 0 -209 213zM238 1403 q0 -45 32 -45l39 12q0 80 -39 80q-32 0 -32 -47z" />
<glyph unicode="&#x2080;" horiz-adv-x="540" d="M10 315q0 190 63.5 268.5t200.5 78.5q135 0 201 -78q63 -76 63.5 -268.5t-63.5 -264.5q-66 -74 -201 -74t-200 74q-64 71 -64 264zM236 315q0 -68 6 -98q6 -33 12 -39t20 -6q22 0 31 25q8 23 8 118q0 98 -8 123q-10 29 -31 29q-14 0 -22 -8q-9 -9 -12 -43q-4 -46 -4 -101 z" />
<glyph unicode="&#x2081;" horiz-adv-x="540" d="M33 485l217 154h196v-639h-217v399l-96 -65z" />
<glyph unicode="&#x2082;" horiz-adv-x="540" d="M29 0v184l149 121q94 76 94 117q0 31 -75 31l-156 -13l-8 203q152 18 241 19q123 0 177 -48q51 -45 51 -157q0 -70 -27 -115q-27 -43 -88 -90l-78 -57h193v-195h-473z" />
<glyph unicode="&#x2083;" horiz-adv-x="540" d="M41 -6l12 190q127 -12 193 -12q59 0 59 33q0 29 -53 28h-135v175h131q41 0 41 28q0 31 -56 31l-172 -10l-12 186q138 18 221 19q248 0 248 -183q0 -109 -59 -143q72 -31 71 -150q0 -106 -63.5 -157.5t-177.5 -51.5z" />
<glyph unicode="&#x2084;" horiz-adv-x="540" d="M20 72v180l80 387h242l-106 -373h55l28 185h187v-185h22v-194h-22v-72h-215v72h-271z" />
<glyph unicode="&#x2085;" horiz-adv-x="540" d="M37 14l16 174q114 -18 191 -18q51 0 51 31q0 33 -29 32l-53 -8l-160 23l23 391h424v-184h-254l-6 -52q59 12 90 13q190 0 190 -203q0 -227 -241 -227q-25 0 -107 8q-61 6 -98 12z" />
<glyph unicode="&#x2086;" horiz-adv-x="540" d="M18 295q0 182 61.5 274.5t219.5 92.5q34 0 86 -7q55 -6 90 -12l37 -6l-12 -178q-135 12 -193 12q-68 0 -67 -53l12 2q14 4 33 6q14 2 32 2q109 0 162 -53q51 -51 51 -162t-69 -174q-68 -61 -174 -62q-269 1 -269 318zM240 236q0 -70 36 -70q35 0 35 43t-32 43 q-8 0 -21 -4q-8 -2 -14 -8z" />
<glyph unicode="&#x2087;" horiz-adv-x="540" d="M43 424v215h465v-207l-195 -452l-247 38l186 379v27h-209z" />
<glyph unicode="&#x2088;" horiz-adv-x="540" d="M10 193q0 88 66 141q-55 39 -56 145q0 182 252 183q254 0 254 -185q0 -92 -55 -145q6 -3 18 -13q10 -8 29 -45q16 -33 17 -81q0 -117 -66 -166q-65 -49 -197 -50q-133 0 -198 50q-64 49 -64 166zM233 197q0 -45 39 -45t39 45q0 27 -24 51h-29q-25 -24 -25 -51zM236 449 q0 -23 22 -52h29q23 29 22 52q0 39 -36.5 39t-36.5 -39z" />
<glyph unicode="&#x2089;" horiz-adv-x="540" d="M18 424q0 115 66 176q63 61 178 62q268 0 268 -338q0 -176 -61 -263q-59 -84 -207 -84q-43 0 -98 7q-16 2 -32.5 5l-33 6t-22.5 5l-35 6l12 178q101 -12 178 -12q68 0 68 47l-10 -2q-2 0 -5 -1t-6.5 -1t-8.5 -1t-9 -1q-12 -2 -33 -2q-209 0 -209 213zM238 424 q0 -45 32 -45l39 12q0 80 -39 80q-32 0 -32 -47z" />
<glyph unicode="&#x20ac;" horiz-adv-x="1212" d="M139 389v213h109v131h-109v213h123q31 240 144 334q115 96 354 96q68 0 170 -10q90 -8 143 -18l53 -11l-8 -247q-182 8 -317 8q-117 0 -168 -31q-55 -33 -76 -123h428v-211h-446v-131h446v-213h-426q23 -80 78 -108q53 -27 172 -27l309 10l6 -254q-209 -35 -364 -35 q-244 0 -357 97q-111 94 -141 317h-123z" />
<glyph unicode="&#x2122;" d="M14 1157v162h410v-162h-84v-477h-180v477h-146zM475 678v641h211l84 -324l92 324h209v-641h-168v356l-69 -313h-113l-78 313v-356h-168z" />
<glyph unicode="&#x2211;" horiz-adv-x="1703" />
<glyph unicode="&#x2212;" d="M104 428v250h873v-250h-873z" />
<glyph unicode="&#x221e;" horiz-adv-x="1093" d="M59 596q0 352 281 352q72 0 121 -26q47 -25 86 -88q35 61 84 87.5t123 26.5q281 0 280.5 -350t-284.5 -350q-70 0 -119 26q-43 23 -84 86q-37 -61 -84 -86q-49 -27 -119 -26q-285 0 -285 348zM309 596q0 -92 53 -92q4 0 8.5 1t6.5 1q6 0 12 6q2 2 6 5l4 3q2 2 11 15 q6 10 10 16q6 12 12 22q9 15 12 25q-39 78 -55 88q-12 6 -27 6q-53 0 -53 -96zM649 598q3 -9 13 -25q6 -10 12 -22q2 -4 10 -16.5t10 -14.5l4 -3q4 -3 7 -5q6 -6 12 -6q2 0 6 -1t8 -1q53 0 53 92q0 96 -53 96q-27 0 -39 -16q-14 -16 -35 -60l-5 -10t-3 -8z" />
<glyph unicode="&#x2248;" d="M119 420q6 6 35 31q14 12 90 47q68 31 135 30q55 0 182 -45t180 -45q39 0 88 21q61 25 86 41l35 18l17 -256q-9 -12 -31 -31q-16 -14 -82 -47q-61 -31 -125 -30q-59 0 -194.5 45t-172.5 45q-98 0 -223 -82zM119 870q6 6 35 31q20 18 90 49q63 29 135 29q55 0 182 -45 t180 -45q39 0 88 20q59 25 86 39l35 21l17 -256q-9 -12 -31 -31q-16 -14 -82 -47q-61 -31 -125 -31q-59 0 -194.5 45t-172.5 45q-98 0 -223 -82z" />
<glyph unicode="&#x2260;" d="M43 238v249h311l86 195h-397v250h506l133 299l221 -88l-94 -211h207v-250h-316l-86 -195h402v-249h-510l-129 -293l-221 88l90 205h-203z" />
<glyph unicode="&#x2264;" d="M129 0v270h813v-270h-813zM129 532v369l813 209v-287l-543 -102l543 -109v-286z" />
<glyph unicode="&#x2265;" d="M143 0v270h834v-270h-834zM143 326v286l564 109l-564 102v287l834 -209v-369z" />
<glyph unicode="&#xe000;" horiz-adv-x="1020" d="M0 1020h1020v-1020h-1020v1020z" />
<glyph horiz-adv-x="479" />
<glyph horiz-adv-x="1099" d="M207 0v1495h72v-534q174 82 352 81q203 0 276 -116q72 -113 72 -391q0 -299 -96.5 -426t-370.5 -127q-139 0 -305 18zM279 59q160 -12 231 -12q129 0 207 26.5t119 94.5q43 72 55 147q12 83 12 215q0 246 -53 344q-55 102 -219 103q-86 0 -170 -21q-98 -25 -135 -41 l-47 -20v-836z" />
<glyph horiz-adv-x="1282" d="M211 0v1434h491q209 0 311.5 -84t102.5 -265q0 -272 -198 -346q254 -70 253 -338q0 -221 -110 -311q-113 -90 -320 -90h-530zM285 70h456q168 0 263 75q92 74 92 256q0 297 -371 297h-440v-628zM285 766h440q163 0 240 80q76 78 75 239q0 150 -82 213q-84 66 -256 66 h-417v-598z" />
<glyph horiz-adv-x="980" d="M72 1024h75l299 -958h89l301 958h75l-321 -1024h-201z" />
<glyph horiz-adv-x="931" d="M78 0l346 512l-346 512h82l307 -457l307 457h82l-346 -512l346 -512h-84l-305 457l-305 -457h-84z" />
<glyph d="M94 690q0 371 129 526.5t375 155.5q174 0 328 -39l-8 -67q-147 37 -320 37q-209 0 -317 -136q-109 -137 -109 -446q0 4 57 31q68 31 156 59q92 29 178 29q428 0 428 -414q0 -444 -438 -444q-238 0 -348.5 178t-110.5 530zM170 649q2 -295 94 -448q88 -150 289 -150 q197 0 278 92q82 90 82 283q0 168 -79.5 256t-274.5 88q-174 -6 -385 -119z" />
<glyph d="M96 928q0 213 113 327q115 117 334 117q231 0 340 -178q109 -180 108 -530q0 -369 -123 -527q-123 -156 -364 -155q-74 0 -164 12q-106 14 -137 20l-51 11l12 65q164 -39 340 -39q207 0 309 139.5t102 452.5q0 -4 -57 -31q-53 -25 -156 -57q-98 -31 -178 -31 q-219 0 -323 109q-105 108 -105 295zM174 928q0 -152 86 -244q84 -90 268 -90q174 6 385 119l5 2q-10 588 -375 588q-369 0 -369 -375z" />
<glyph horiz-adv-x="1335" d="M211 0v1434h586q119 0 209 -72q86 -70 131 -186q39 -102 59 -224q18 -108 18 -215q0 -53 -8 -159q-4 -63 -32 -189q-27 -115 -66 -192q-41 -78 -125 -140q-78 -57 -186 -57h-586zM285 70h512q92 0 157 57q72 61 103 133q35 82 53 180q20 113 23 170q4 86 4 127 q0 74 -15 160q-18 106 -47 205q-35 115 -106 186q-76 76 -172 76h-512v-1294z" />
<glyph d="M211 0v1434h74v-1364h698v-70h-772z" />
<glyph horiz-adv-x="0" />
<glyph d="M59 1165q0 143 52 207q53 66 165.5 66t163.5 -64q53 -66 54 -211q0 -283 -218 -282q-111 0 -164 69.5t-53 214.5zM131 1165q0 -113 33 -166t112 -53q82 0 113 53q33 55 33 164q0 106 -33 160q-31 49 -113 49q-78 0 -112 -51q-33 -47 -33 -156zM381 12l295 1424l74 -15 l-295 -1423zM635 285q0 143 51 207q53 66 166 65q111 0 164 -65.5t53 -208.5q0 -283 -217 -283q-111 0 -164 68q-53 70 -53 217zM707 284.5q0 -110.5 32 -163.5q35 -55 113 -55q82 0 113 53q33 55 32 164q0 106 -32 159q-31 49 -113 50q-78 0 -113 -50q-32 -47 -32 -157.5z " />
<glyph d="M279 938l225 164l-223 164l41 55l225 -166l86 264l65 -20l-86 -266h277v-70h-281l86 -264l-65 -21l-86 266l-226 -161z" />
<glyph horiz-adv-x="530" d="M10 616q0 172 51 412q47 223 99 369l49 139h72q-27 -72 -54 -158q-29 -92 -86 -346q-55 -246 -55 -416q0 -341 178 -829l17 -43h-72l-55 139q-31 82 -88 320q-56 231 -56 413z" />
<glyph horiz-adv-x="530" d="M-8 -246q39 109 55 158q23 76 84 344q55 246 55 418q0 341 -178 829l-16 43h71l56 -139q31 -82 88 -320q55 -231 55 -413q0 -181 -49 -411.5t-98 -368.5l-52 -140h-71z" />
<glyph horiz-adv-x="581" d="M0 602v66q117 28 166 86q47 55 47 159q0 27 -6 125q-8 131 -8 138q0 182 84 270q80 82 276 92l4 -65q-172 -10 -231 -78q-61 -72 -62 -219q0 -37 6 -125l9 -119q0 -135 -45 -195q-47 -63 -160 -100q115 -37 160 -100.5t45 -190.5l-15 -237q0 -145 62 -218q61 -70 231 -79 l-4 -66q-199 10 -278 92q-82 84 -82 271q0 14 8 137q6 92 6 114q0 100 -47 153.5t-166 88.5z" />
<glyph horiz-adv-x="1931" d="M123 711q0 379 119 559q121 182 430 182q221 0 301 -18h837v-74h-763v-586h641v-74h-641v-626h763v-74h-833v-2q-76 -16 -305 -16q-168 0 -273 45q-106 45 -168 143q-59 96 -84 223q-24 130 -24 318zM201 711q0 -174 18 -287q18 -109 70 -203q49 -90 143 -129 q98 -41 240 -41q218 0 301 19v1288q-80 25 -301 24q-143 0 -237.5 -43t-143.5 -135q-53 -100 -70 -205q-20 -128 -20 -288zM973 1358l2 -680v680h-2z" />
<glyph horiz-adv-x="1703" d="M469 434v66h379v477h-379v65h379v392h72v-392h378v-65h-378v-477h378v-66h-378v-434h-72v434h-379z" />
<glyph horiz-adv-x="788" d="M10 1397q231 55 340 55q201 0 307 -76q102 -72 103 -248q0 -98 -41 -174q-43 -80 -103 -139q-59 -57 -120 -110q-55 -47 -103 -115q-41 -59 -41 -123v-78h-71v84q0 70 43 137.5t102 120.5l119 113q57 57 100 131t43 153q0 139 -84 199q-82 57 -254 57q-100 0 -330 -57z M276 2v164h82v-164h-82z" />
<glyph horiz-adv-x="286" d="M51 0v164h82v-164h-82zM51 705v163h82v-163h-82z" />
<glyph horiz-adv-x="346" d="M-12 -252l84 430h86l-107 -430h-63zM66 705v163h81v-163h-81z" />
<glyph horiz-adv-x="612" d="M98 1534h375v-66h-301v-1654h301v-66h-373z" />
<glyph horiz-adv-x="612" d="M104 -186h302v1654h-302v66h375l-2 -1786h-373v66z" />
<glyph horiz-adv-x="202" d="M-41 1413h244l-10 -471h-230z" />
<glyph horiz-adv-x="724" d="M68 1413h243l-10 -471h-229zM391 1413h244l-10 -471h-230z" />
<glyph horiz-adv-x="1431" d="M78 426q0 180 78 270q76 88 256 142q-70 76 -86 133q-18 61 -19 155q0 133 80 213q82 82 234 82q162 0 237 -80q76 -78 76 -217q0 -145 -78 -229t-260 -143l383 -379q43 131 63 299h72q-27 -219 -80 -353l287 -280l-49 -53l-268 266q-135 -270 -455 -270 q-258 0 -364.5 112.5t-106.5 331.5zM150 428q0 -190 94 -284.5t309 -94.5q281 0 397 254l-485 481q-175 -46 -246 -122q-69 -76 -69 -234zM379 1126q0 -160 92 -252l74 -73q176 61 248 129q70 68 69 196q0 229 -241.5 229t-241.5 -229z" />
<glyph horiz-adv-x="1165" d="M233 0v70h189v696h-141v65h141v195q0 215 67.5 291t212.5 76q77 0 246 -25v-65q-178 25 -246 24q-109 0 -159 -63q-49 -61 -49 -238v-195h372v-65h-372v-696h356l168 32l14 -65l-166 -35z" />
<glyph horiz-adv-x="1212" d="M139 502v69h127q-2 23 -2 107q0 100 2 127h-127v69h131q23 262 131 388q111 125 373 124q184 0 359 -38l-7 -72q-193 41 -352 41q-225 0 -317 -107q-90 -104 -109 -336l637 -2v-67h-641q-2 -27 -2 -127q0 -84 2 -107l641 -2v-67h-639q16 -238 107 -344q92 -106 321 -107 q141 0 352 41l7 -69q-201 -41 -359 -41q-262 0 -373 124q-113 129 -131 396h-131z" />
<glyph horiz-adv-x="1703" d="M504 1407l71 29l617 -1407l-72 -29z" />
<glyph horiz-adv-x="1062" d="M55 -70h877v-69h-877v69z" />
<glyph horiz-adv-x="1257" d="M211 0v1434h522q213 0 320 -103q104 -102 104 -329.5t-96 -352.5q-94 -123 -328 -123h-448v-526h-74zM285 596h448q346 0 346 405q0 188 -86 275q-88 88 -260 88h-448v-768z" />
<glyph d="M6 684v74h688v-74h-688zM309 285v164h82v-164h-82zM309 989v164h82v-164h-82z" />
<glyph horiz-adv-x="837" d="M-100 479v70h475v475h74v-475h479v-70h-479v-479h-74v479h-475z" />
<glyph horiz-adv-x="899" d="M123 541v69h655v-69h-655z" />
<glyph d="M129 602v74l711 469v-80l-645 -422l645 -444v-84q-633 430 -711 487z" />
<glyph d="M2 702v70h1034v-70h-1034zM4 356v70h1034v-70h-1034z" />
<glyph d="M129 115v84l645 444l-645 422v80l711 -469v-74z" />
<glyph d="M94 25l568 1413l67 -29l-567 -1411z" />
<glyph horiz-adv-x="1792" d="M123 535q0 287 94 395q96 113 326 112q301 0 377 -245q88 246 372 245q193 0 291 -116.5t98 -374.5v-68h-727q0 -223 70 -329.5t242 -106.5q143 0 372 19l4 -66q-229 -18 -378 -18q-270 4 -346 219q-37 -115 -125 -166q-90 -53 -250 -53q-248 0 -334 118q-86 122 -86 435 zM199 535q0 -141 12 -226q14 -90 47 -149q37 -63 104.5 -88t180.5 -25q115 0 180 27q68 29 102.5 96.5t42.5 144.5q10 88 11 215q0 243 -80 344q-80 102 -256 103q-197 0 -270.5 -92t-73.5 -350zM954 549h652q0 231 -74 329.5t-240 98.5q-338 0 -338 -428z" />
<glyph horiz-adv-x="1837" d="M72 0l514 1434h1130v-70h-764v-590h641v-69h-641v-635h764v-70h-837v440h-566l-159 -440h-82zM338 510h541v854h-236z" />
<glyph horiz-adv-x="1341" d="M94 711q0 379 119 559q121 182 430 182q170 0 287 -57l106 227l68 -29l-113 -237q109 -84 156 -244q45 -154 45 -401q0 -393 -115 -559q-117 -170 -434 -170q-162 0 -274 47l-119 -256l-68 26l123 264q-117 78 -164 236q-47 160 -47 412zM172 711q0 -230 37 -369 q39 -143 129 -211l559 1196q-98 55 -254 55q-143 0 -237 -43q-96 -43 -146 -135q-49 -94 -67 -205q-21 -128 -21 -288zM399 94q98 -43 244 -43q150 0 242 37q90 37 141 125q51 90 70 203q18 114 18 295q0 430 -156 573z" />
<glyph horiz-adv-x="1693" d="M113 281q0 143 63.5 206.5t218.5 87.5l389 41v107q0 250 -227 250q-152 0 -385 -19l-4 68q213 20 389 20q236 0 285 -196q100 197 352 196q195 0 293 -116q96 -115 96 -375v-68h-727q0 -223 69.5 -329.5t241.5 -106.5q143 0 373 19l4 -66q-229 -18 -379 -18 q-205 4 -293 118l-77 -32q-190 -86 -422 -86q-260 0 -260 299zM188 280.5q0 -112.5 50 -174.5q47 -59 137 -59q84 0 198 25q119 27 175 45q76 27 94 35q-61 119 -62 360v37l-377 -37q-111 -8 -163 -66q-52 -53 -52 -165.5zM856 549h651q0 229 -75 330q-74 98 -238 98 q-338 0 -338 -428z" />
<glyph d="M74 497.5q0 286.5 127 417.5q125 127 338 127q212 0 338 -129q127 -131 127 -415q0 -289 -123 -402q-125 -115 -342 -114q-215 0 -340 114.5t-125 401zM330 498q0 -160 51 -222q49 -59 158 -59q111 0 159 59q49 58 50 222q0 181 -50 245q-49 63 -159 64q-109 0 -158 -64 q-51 -67 -51 -245z" />
<glyph d="M152 776l436 248h215v-1024h-256v727l-301 -158z" />
<glyph d="M145 0v223l261 187q166 119 217 172q55 58 55 116q0 61 -47 80q-49 18 -172 19q-6 0 -105 -9l-74.5 -7t-58.5 -5q-59 -6 -59 -8l-17 233q252 41 408 41q401 0 401 -305q0 -125 -59 -202q-57 -74 -209 -181l-170 -118h451v-236h-822z" />
<glyph d="M174 27l31 233q236 -23 391 -22q88 0 121 22q31 22 31 68q0 76 -160 75h-271v226h269q131 0 131 88q0 82 -133 82q-80 0 -172 -6q-94 -6 -146 -13l-51 -4l-25 230q231 39 392 38q193 0 292 -59q98 -59 99 -194q0 -168 -131 -244q162 -70 162 -246q0 -160 -113 -240 q-114 -80 -295 -79q-78 0 -182 12q-168 20 -172 20z" />
<glyph d="M131 168v184l258 672h273l-250 -610h250v233h256v-233h83v-246h-83v-168h-256v168h-531z" />
<glyph d="M121 47l31 234q258 -49 409 -50q162 0 162 86q0 102 -168 103q-84 0 -201 -43l-202 39l45 616h768v-270h-535l-24 -137q90 37 186 37q199 0 307 -84q106 -82 107 -244q0 -163 -111 -258q-109 -94 -324 -94q-178 -1 -450 65z" />
<glyph d="M119 520q0 270 131 398q127 125 336 124q193 0 370 -30l-18 -213q-221 18 -352 18q-211 0 -211 -209q0 2 39 15q72 25 94 28q57 12 94 13q412 0 412 -342q0 -158 -131 -250q-133 -92 -330 -92q-218 0 -326 129q-108 130 -108 411zM375 399q6 -195 198 -194q184 0 185 117 q0 102 -180 102q-37 0 -86 -6q-59 -8 -84 -12z" />
<glyph d="M182 799v225h752v-272l-404 -770l-219 59l379 711v47h-508z" />
<glyph d="M98 279q0 98 41 157q39 57 115 99q-131 82 -131 219q0 145 108.5 216.5t299 71.5t299 -71.5t108.5 -216.5q0 -137 -131 -219q55 -37 78 -56q31 -27 53 -73q25 -53 25 -127q0 -150 -121 -224q-123 -76 -311.5 -75.5t-311.5 75.5q-121 74 -121 224zM354 303 q0 -102 176.5 -102t176.5 102q0 47 -27 74q-23 23 -88 47h-123q-115 -41 -115 -121zM379 731q0 -78 90 -113h123q90 31 90 115q0 37 -37 62q-39 27 -115 26q-80 0 -114 -26q-37 -29 -37 -64z" />
<glyph d="M109 698q0 162 112 254q115 92 299 92q430 0 430 -530q0 -276 -125 -405q-123 -127 -329 -127q-92 0 -179 12q-113 16 -127 20l-40 13l24 211q152 -27 322 -27q90 0 143 55q51 53 51 152l-20 -8q-22 -9 -74 -19q-57 -10 -111 -10q-376 0 -376 317zM365 702q0 -45 38 -73 q35 -27 105 -27q49 3 92 12q29 6 59 17l19 6q-4 182 -168 182q-76 0 -110.5 -29t-34.5 -88z" />
<glyph d="M496 -121v1555h71v-1555h-71z" />
<glyph horiz-adv-x="892" d="M25 506q0 399 356 434v270h72v-266l237 -22l-4 -72q-141 16 -233 20v-712l237 16l4 -72q-162 -18 -241 -18v-260h-72v260q-188 10 -272 100.5t-84 321.5zM106 506q0 -195 60 -266q58 -71 215 -80v706q-139 -16 -207 -100q-68 -86 -68 -260z" />
<glyph d="M125 696v70h506l147 334l72 -29l-135 -305h280v-70h-311l-135 -309h448v-70h-479l-147 -337l-72 28l135 309h-307v70h338l135 309h-475z" />
<glyph horiz-adv-x="1103" d="M51 1352h84l420 -633l414 633h86l-391 -604h344v-70h-390l-26 -41v-195h418v-69h-418v-373h-74v373h-420v69h420v195l-26 41h-396v70h350z" />
<glyph d="M184 -512v1536h72v-528q0 -270 49 -359q49 -90 215 -90q174 0 332 100l4 3v874h72v-1024h-72v82l-17.5 -9t-31.5 -18q-27 -16 -121 -45q-92 -29 -166 -28q-194 0 -264 104v-598h-72z" />
<glyph d="M143 -496l4 68q126 -6 185 -6q94 0 141 69.5t47 229.5v856h-141v65h141v228q0 365 260 364l191 -6l-4 -65q-168 4 -187 4q-188 0 -188 -299v-226h332v-65h-332v-856q0 -201 -64 -283q-66 -84 -196 -84z" />
<glyph horiz-adv-x="346" d="M-12 -252l86 430h82l-105 -430h-63z" />
<glyph horiz-adv-x="505" d="M201 0v164h82v-164h-82z" />
<glyph horiz-adv-x="346" d="M8 1079l82 410h78l-98 -410h-62z" />
<glyph horiz-adv-x="1703" d="M240 1073q0 160 110 260q109 100 271 101h712v-68h-198v-1366h-74v1366h-352v-1366h-74v717h-14q-160 0 -270.5 98t-110.5 258z" />
<glyph horiz-adv-x="581" d="M-2 -197q172 10 231 78q61 70 62 219q0 6 -8 125q-6 90 -7 119q0 135 46 195q47 63 159 100q-115 37 -160 100.5t-45 190.5l15 237q0 147 -61.5 217t-231.5 80l4 66q197 -10 277 -92q84 -88 83 -271q0 -14 -8 -137q-6 -92 -6 -115q0 -100 47 -153t166 -88v-66 q-117 -28 -166 -86q-47 -55 -47 -160q0 -27 6 -124q8 -131 8 -138q0 -182 -83 -270q-80 -82 -277 -92z" />
<glyph horiz-adv-x="346" d="M-45 1079l98 410h62l-82 -410h-78z" />
<glyph horiz-adv-x="0" d="M178 344q0 51 10 102q8 41 23 74q12 27 41 60q37 41 43 47q8 8 53 43l53 43l-41 32l-41 33l-32 29q-25 20 -31 35l-20 35q-18 29 -20.5 45t-8.5 51q-6 27 -6 63q0 340 481 340q489 0 489 -342q0 -29 -4 -69q-4 -37 -16 -60q-12 -20 -21 -43q-4 -10 -34 -41l-22 -22 l-11 -13q-18 -18 -45 -38q-41 -33 -47 -35l61 -47q57 -43 66 -54l45 -57q31 -41 39 -82q10 -51 10 -106q0 -213 -133 -304q-131 -88 -377 -88q-504 0 -504 369zM481 418q0 -152 201 -152q207 0 207 152q0 104 -113 155h-180q-66 -31 -90.5 -67.5t-24.5 -87.5zM504 963 q0 -6 1 -14.5t1 -10.5q0 -12 6 -20q2 -4 4 -9.5t2 -7.5l6 -6q6 -4 8 -6q12 -12 16.5 -14.5t22.5 -14.5l25 -16h180q12 8 23 14q6 4 11 9t7 5q2 2 8 6.5t9 6.5q12 8 14 12t8 10t6 15q0 6 4 18q2 6 2 23q0 68 -39 94q-41 29 -143 28q-104 0 -143 -30.5t-39 -91.5z" />
<glyph horiz-adv-x="731" d="M43 774v248h121v266l274 21v-287h252v-248h-252v-387q0 -72 2 -88q2 -23 23 -43q18 -18 61 -18l156 4l12 -236q-138 -31 -209 -31q-184 0 -252 82q-68 83 -67 308v409h-121z" />
<glyph horiz-adv-x="899" d="M123 461v229h655v-229h-655z" />
<glyph horiz-adv-x="505" d="M92 0v291h270v-291h-270z" />
<glyph d="M2 217v270h1036v-270h-1036zM2 641v270h1034v-270h-1034z" />
<glyph horiz-adv-x="1062" d="M55 31h877v-271h-877v271z" />
<glyph horiz-adv-x="692" d="M49 545v188q213 53 213 185q0 27 -6 124q-8 131 -8 138q0 184 90 268q86 80 311 90v-229q-96 -10 -119 -37q-27 -33 -26 -113q0 -8 8 -115q6 -80 6 -108q0 -135 -45 -194.5t-160 -100.5q117 -40 160 -98q45 -61 45 -193q0 -31 -6 -106q-8 -102 -8 -111q0 -84 26 -117 q27 -31 119 -41v-229q-223 8 -311 94q-90 86 -90 273q0 14 8 137q6 92 6 115q0 121 -213 180z" />
<glyph horiz-adv-x="581" d="M-219 -33q96 10 119 37q27 33 26 113q0 8 -8 114q-6 80 -6 109q0 135 45 194.5t160 100.5q-117 40 -160 98q-45 61 -45 193q0 29 6 106q8 102 8 111q0 84 -26 117q-27 31 -119 40v230q223 -8 311 -94q90 -86 90 -273q0 -14 -8 -137q-6 -92 -6 -115q0 -121 213 -180v-188 q-213 -53 -213 -185q0 -27 6 -125q8 -131 8 -137q0 -184 -90 -268q-86 -80 -311 -90v229z" />
<glyph horiz-adv-x="837" d="M-100 389v250h387v385h250v-385h391v-250h-391v-389h-250v389h-387z" />
<glyph horiz-adv-x="540" d="M10 111q0 193 64 268q66 78 201 78t200 -78q63 -76 64 -268q0 -190 -64 -263q-66 -76 -201 -75.5t-200 75.5q-64 73 -64 263zM236 111q0 -66 6 -97q6 -33 12 -39q8 -8 20 -8q22 0 31 25q8 23 8 119q0 100 -8 125q-8 27 -31 26q-14 0 -22 -8q-9 -9 -12 -43q-4 -45 -4 -100 z" />
<glyph horiz-adv-x="540" d="M33 281l217 153h196v-639h-217v400l-96 -66z" />
<glyph horiz-adv-x="540" d="M29 -20l149 120q94 76 94 117q0 31 -75 31l-156 -12l-8 202q152 18 241 19q123 0 177 -47q51 -45 51 -158q0 -70 -27 -115q-27 -43 -88 -90l-78 -57h193v-195h-473v185z" />
<glyph horiz-adv-x="540" d="M41 -211l12 191q127 -12 193 -13q59 0 59 33q0 29 -53 29h-135v174h131q41 0 41 28q0 31 -56 31l-172 -10l-12 186q138 18 221 19q248 0 248 -183q0 -109 -59 -143q72 -31 71 -149q0 -104 -63 -156q-66 -53 -178 -53z" />
<glyph horiz-adv-x="540" d="M20 47l80 387h242l-106 -373h55l28 185h187v-185h22v-194h-22v-72h-215v72h-271v180z" />
<glyph horiz-adv-x="540" d="M37 -190l16 174q114 -18 191 -19q51 0 51 31q0 33 -29 33l-53 -9l-160 23l23 391h424v-184h-254l-6 -51q59 12 90 12q190 0 190 -203q0 -227 -241 -227q-45 0 -107 6q-31 4 -98 14z" />
<glyph horiz-adv-x="540" d="M18 90q0 182 61.5 274.5t219.5 92.5q34 0 86 -6q55 -6 90 -13l37 -6l-12 -178q-135 12 -193 12q-68 0 -67 -53l12 2q4 2 15.5 3t17.5 1q29 4 32 4q109 0 162 -53q51 -51 51 -161.5t-69 -174.5q-68 -61 -174 -61q-269 0 -269 317zM240 31q0 -70 36 -70q35 0 35 43t-32 43 q-8 0 -21 -4q-8 -2 -14 -8z" />
<glyph horiz-adv-x="540" d="M43 219v215h465v-207l-195 -452l-247 39l186 379v26h-209z" />
<glyph horiz-adv-x="540" d="M10 -12q0 88 66 141q-55 39 -56 145q0 182 252 183q254 0 254 -185q0 -92 -55 -145q2 0 5 -3l6 -6t7 -5q10 -8 29 -45q16 -33 17 -80q0 -117 -66 -166q-65 -49 -197 -49q-133 0 -198 49q-64 49 -64 166zM233 -8q0 -45 39 -45t39 45q0 27 -24 51h-29q-25 -24 -25 -51z M236 244q0 -25 22 -51h29q23 29 22 51q0 39 -36.5 39t-36.5 -39z" />
<glyph horiz-adv-x="540" d="M18 219q0 115 66 176q63 61 178 62q268 0 268 -338q0 -180 -61 -262q-61 -84 -207 -84q-25 0 -98 8q-53 6 -88 12l-35 8l12 179q101 -12 178 -13q68 0 68 47l-10 -2q-2 0 -5 -1t-6.5 -1t-8.5 -1t-9 -1q-12 -2 -33 -2q-209 0 -209 213zM238 219q0 -45 32 -45l39 12 q0 80 -39 80q-32 0 -32 -47z" />
<glyph horiz-adv-x="1521" d="M111 0v340h295v-340h-295zM633 0v340h295v-340h-295zM1155 0v340h295v-340h-295z" />
<glyph horiz-adv-x="788" d="M10 -35q0 104 37 185q37 78 90 129q55 51 107 86q55 37 92 73.5t37 75.5v78h295v-84q0 -78 -37 -137.5t-88 -98.5l-103 -75q-57 -41 -90 -84q-37 -49 -37 -111q0 -88 29 -119q31 -33 141 -33q55 0 123 9q77 9 129 18l53 10l33 -270q-236 -57 -350 -57q-246 0 -354 92 q-107 92 -107 313zM373 682v340h295v-340h-295z" />
<glyph horiz-adv-x="788" d="M10 379q0 104 37 184q37 78 90 129q55 51 107 86q55 37 92 74t37 76v78h295v-84q0 -78 -37 -137.5t-88 -98.5l-103 -76q-57 -41 -90 -84q-37 -49 -37 -110q0 -86 29 -117q31 -35 141 -35q37 0 123 10q77 9 129 19l53 8l33 -270q-236 -57 -350 -58q-250 0 -354 90 q-107 93 -107 316zM373 1096v340h295v-340h-295z" />
<glyph horiz-adv-x="788" d="M10 379q0 104 37 184q37 78 90 129q55 51 107 86q55 37 92 74t37 76v78h295v-84q0 -78 -37 -137.5t-88 -98.5l-103 -76q-57 -41 -90 -84q-37 -49 -37 -110q0 -86 29 -117q31 -35 141 -35q37 0 123 10q77 9 129 19l53 8l33 -270q-236 -57 -350 -58q-250 0 -354 90 q-107 93 -107 316zM373 1096v340h295v-340h-295z" />
<glyph horiz-adv-x="1024" d="M0 498v250h1024v-250h-1024z" />
<glyph horiz-adv-x="2048" d="M0 498v250h2048v-250h-2048z" />
<glyph horiz-adv-x="505" d="M92 506v340h295v-340h-295z" />
<glyph d="M406 -412l10 901h282l11 -901h-303zM410 682v340h295v-340h-295z" />
<glyph horiz-adv-x="530" d="M10 678q0 172 51 412q49 230 99 368l49 139h299q-35 -96 -55 -159q-31 -98 -86 -344q-53 -238 -54 -416q0 -341 179 -830l16 -43h-299l-55 140q-31 82 -88 319q-56 232 -56 414z" />
<glyph horiz-adv-x="530" d="M-8 -184q35 96 55 159q23 76 84 344q55 246 55 416q0 341 -178 830l-16 43h299l55 -140q31 -82 88 -319q55 -231 55 -414q0 -172 -51 -411q-49 -230 -98 -369l-49 -139h-299z" />
<glyph horiz-adv-x="612" d="M57 1595h518v-270h-235v-1245h235v-270h-516z" />
<glyph horiz-adv-x="612" d="M45 80h236v1245h-236v270h518l-2 -1785h-516v270z" />
<glyph horiz-adv-x="692" d="M49 588v229q111 27 154 70q39 39 39 114q0 28 -6 123q-8 127 -9 138q0 195 103 272q100 76 340 86v-270q-96 -10 -119 -27q-27 -20 -27 -82q0 -2 8 -133q6 -98 7 -129q0 -123 -45 -180.5t-160 -93.5q113 -37 160 -103q45 -63 45 -188q0 -28 -7 -117q-8 -119 -8 -123 q0 -66 27 -86q29 -23 119 -31v-270q-231 10 -336 90q-106 82 -107 262q0 12 9 135q6 92 6 113q0 76 -41 123t-152 78z" />
<glyph horiz-adv-x="692" d="M25 49q98 10 120 27q25 18 25 82q0 37 -6 135q-2 25 -4 55.5t-3 47t-1 24.5q0 121 45 178q47 59 159 96q-113 37 -159 103q-45 63 -45 188q0 8 1 23.5t3 43t4 50.5q6 89 6 123q0 66 -27 86q-29 23 -118 30v271q236 -10 337 -90q104 -84 105 -262q0 -41 -6 -134l-4 -52 l-3 -41.5t-1 -20.5q0 -76 41 -123t151 -78v-229q-111 -27 -153 -70q-39 -39 -39 -115q0 -8 1 -23.5l3 -45t4 -54.5q6 -94 6 -137q0 -193 -105 -272q-100 -76 -337 -86v270z" />
<glyph horiz-adv-x="546" d="M12 1696l90 260l527 -189l-82 -231z" />
<glyph horiz-adv-x="546" d="M2 1696l90 260l526 -189l-81 -231z" />
<glyph horiz-adv-x="546" d="M-10 1790l526 188l90 -260l-534 -159z" />
<glyph horiz-adv-x="546" d="M-2 1790l526 188l90 -260l-534 -159z" />
<glyph horiz-adv-x="993" d="M49 1608l268 305h252l269 -305h-308l-84 88l-84 -88h-313z" />
<glyph horiz-adv-x="546" d="M-74 1608l269 305h251l269 -305h-307l-84 88l-84 -88h-314z" />
<glyph horiz-adv-x="546" d="M-94 1905h313l84 -95l84 95h307l-268 -303h-248z" />
<glyph horiz-adv-x="546" d="M-100 1905h313l84 -95l84 95h307l-268 -303h-248z" />
<glyph horiz-adv-x="546" d="M-82 1802q8 10 32.5 35t80.5 59q59 37 106 37q66 0 197 -45q125 -43 145 -43q53 0 168 80l60 -209q-8 -10 -33 -34.5t-80 -59.5t-107 -35q-61 0 -188 45t-158 45q-27 0 -65 -20q-55 -31 -70 -41l-29 -21z" />
<glyph horiz-adv-x="546" d="M-82 1802q8 10 32.5 35t80.5 59q59 37 106 37q66 0 197 -45q125 -43 145 -43q53 0 168 80l60 -209q-8 -10 -33 -34.5t-80 -59.5t-107 -35q-61 0 -188 45t-158 45q-27 0 -65 -20q-55 -31 -70 -41l-29 -21z" />
<glyph horiz-adv-x="546" d="M-72 1626v270h262v-270h-262zM383 1626v270h262v-270h-262z" />
<glyph horiz-adv-x="546" d="M-72 1626v270h262v-270h-262zM383 1626v270h262v-270h-262z" />
<glyph horiz-adv-x="546" d="M-51 1622v238h710v-238h-710z" />
<glyph horiz-adv-x="546" d="M-51 1622v238h710v-238h-710z" />
<glyph horiz-adv-x="546" d="M-61 1905h284q14 -80 96 -80q83 0 99 80h284q-14 -137 -110 -223.5t-273 -86.5q-175 0 -270 86q-96 87 -110 224z" />
<glyph horiz-adv-x="546" d="M-61 1905h284q14 -80 96 -80q83 0 99 80h284q-14 -137 -110 -223.5t-273 -86.5q-175 0 -270 86q-96 87 -110 224z" />
<glyph horiz-adv-x="546" d="M-2 1476.5q0 120.5 88 188.5q92 70 219 70t219 -70q88 -68 88 -188.5t-88 -188.5q-92 -70 -219 -69.5t-219 69.5q-88 68 -88 188.5zM209 1476.5q0 -28.5 27 -49.5q25 -18 69.5 -18t69.5 18q27 20 26.5 49t-26.5 50q-25 18 -70 18t-69 -18q-27 -21 -27 -49.5z" />
<glyph horiz-adv-x="546" d="M-23 1476.5q0 120.5 89 188.5q92 70 219 70t219 -70q88 -68 88 -188.5t-88 -188.5q-92 -70 -219 -69.5t-219 69.5q-89 68 -89 188.5zM188 1476.5q0 -30.5 25 -49t72 -18.5t71.5 18.5t24.5 49t-24.5 49t-71.5 18.5t-72 -18.5t-25 -49z" />
<glyph horiz-adv-x="546" d="M-68 1610l138 403l258 -92l-160 -391zM379 1608l137 403l258 -92l-160 -391z" />
<glyph horiz-adv-x="546" d="M-68 1610l138 403l258 -92l-160 -391zM379 1608l137 403l258 -92l-160 -391z" />
<glyph horiz-adv-x="546" d="M137 1591v277h275v-277h-275z" />
<glyph horiz-adv-x="546" d="M137 1591v277h275v-277h-275z" />
<glyph horiz-adv-x="540" d="M10 1090q0 193 64 268q66 78 201 78t200 -78q63 -76 64 -268q0 -190 -64 -263q-66 -76 -201 -75.5t-200 75.5q-64 73 -64 263zM236 1090q0 -66 6 -97q6 -33 12 -39q8 -8 20 -8q22 0 31 25q8 23 8 119q0 100 -8 124q-8 27 -31 27q-14 0 -22 -8q-9 -9 -12 -43 q-4 -45 -4 -100z" />
<glyph horiz-adv-x="540" d="M12 1260l217 153h197v-639h-217v400l-96 -66z" />
<glyph horiz-adv-x="540" d="M29 774v184l149 121q94 76 94 117q0 31 -75 31l-156 -13l-8 203q152 18 241 19q123 0 177 -47q51 -45 51 -158q0 -70 -27 -115q-27 -43 -88 -90l-78 -57h193v-195h-473z" />
<glyph horiz-adv-x="540" d="M41 768l12 190q127 -12 193 -12q59 0 59 33q0 29 -53 29h-135v174h131q41 0 41 28q0 31 -56 31l-172 -10l-12 186q138 18 221 19q248 0 248 -183q0 -109 -59 -143q72 -31 71 -149q0 -104 -63 -156q-66 -53 -178 -53z" />
<glyph horiz-adv-x="540" d="M20 846v180l80 387h242l-106 -373h55l28 185h187v-185h22v-194h-22v-72h-215v72h-271z" />
<glyph horiz-adv-x="540" d="M37 788l16 175q114 -18 191 -19q51 0 51 31q0 33 -29 33l-53 -9l-160 23l23 391h424v-184h-254l-6 -51q59 12 90 12q190 0 190 -203q0 -227 -241 -227q-25 0 -107 8q-61 6 -98 12z" />
<glyph horiz-adv-x="540" d="M18 1069q0 182 61.5 274.5t219.5 92.5q34 0 86 -6q55 -6 90 -13l37 -6l-12 -178q-135 12 -193 12q-68 0 -67 -53l12 2q4 2 15.5 3t17.5 1q29 4 32 4q109 0 162 -53q51 -51 51 -161.5t-69 -174.5q-68 -61 -174 -61q-269 0 -269 317zM240 1010q0 -70 36 -70q35 0 35 43 t-32 43q-8 0 -21 -4q-8 -2 -14 -8z" />
<glyph horiz-adv-x="540" d="M43 1198v215h465v-207l-195 -452l-247 39l186 378v27h-209z" />
<glyph horiz-adv-x="540" d="M10 967q0 88 66 141q-55 39 -56 145q0 182 252 183q254 0 254 -185q0 -92 -55 -145q2 0 5 -3l6 -6t7 -5q10 -8 29 -45q16 -33 17 -80q0 -117 -66 -166q-65 -49 -197 -49q-133 0 -198 49q-64 49 -64 166zM233 971q0 -45 39 -45t39 45q0 27 -24 51h-29q-25 -24 -25 -51z M236 1223q0 -23 22 -52h29q23 29 22 52q0 39 -36.5 39t-36.5 -39z" />
<glyph horiz-adv-x="540" d="M18 1198q0 115 66 176q63 61 178 62q268 0 268 -338q0 -180 -61 -262q-61 -84 -207 -84q-25 0 -98 8q-53 6 -88 12l-35 8l12 178q101 -12 178 -12q68 0 68 47l-10 -2q-2 0 -5 -1t-6.5 -1t-8.5 -1t-9 -1q-12 -2 -33 -2q-209 0 -209 213zM238 1198q0 -45 32 -45l39 12 q0 80 -39 80q-32 0 -32 -47z" />
</font>
</defs>
</svg>
